<svg width="262" height="247" viewBox="0 0 262 247" fill="none" xmlns="http://www.w3.org/2000/svg">
<mask id="mask0_64_7248" style="mask-type:alpha" maskUnits="userSpaceOnUse" x="0" y="0" width="262" height="245">
<rect x="0.000976562" width="261.217" height="244.891" fill="url(#paint0_radial_64_7248)"/>
</mask>
<g mask="url(#mask0_64_7248)">
<path opacity="0.1" d="M36.5391 216.516V186.2C36.5391 182.957 37.8056 179.842 40.0689 177.52L77.3229 139.285C79.5862 136.962 80.8527 133.848 80.8527 130.605V117.004C80.8527 110.134 86.4218 104.565 93.2917 104.565H153.481C156.758 104.565 159.902 103.272 162.231 100.967L235.173 28.7655" stroke="#8B579E" stroke-width="1.16615"/>
<path d="M36.5391 216.515V186.199C36.5391 182.956 37.8056 179.841 40.0689 177.519L77.3229 139.284C79.5862 136.961 80.8527 133.847 80.8527 130.604V117.003C80.8527 110.133 86.4218 104.564 93.2917 104.564H130.997" stroke="#8B579E" stroke-width="1.16615"/>
<path opacity="0.1" d="M0.38916 144.214H287.262" stroke="#8B579E" stroke-width="1.16615"/>
<path opacity="0.1" d="M48.2026 68.4143L76.8407 116.029C79.0902 119.77 83.1355 122.057 87.5001 122.057H233.62C240.49 122.057 246.059 127.626 246.059 134.496V215.349" stroke="#8B579E" stroke-width="1.16615"/>
<path opacity="0.1" d="M18.6582 144.213V80.4639C18.6582 73.594 24.2273 68.025 31.0971 68.025H325.355" stroke="#8B579E" stroke-width="1.16615"/>
<path opacity="0.1" d="M19.437 -33.8178V55.587C19.437 62.4568 25.0061 68.0259 31.8759 68.0259H324.968" stroke="#8B579E" stroke-width="1.16615"/>
<path opacity="0.1" d="M1.55615 198.245H183.475C190.345 198.245 195.914 192.676 195.914 185.806V-12.4393" stroke="#8B579E" stroke-width="1.16615"/>
<path opacity="0.1" d="M71.1372 217.292L128.183 147.652C130.004 145.428 131 142.643 131 139.769V-23.7119" stroke="#8B579E" stroke-width="1.16615"/>
<g filter="url(#filter0_bdi_64_7248)">
<circle cx="195.913" cy="144.602" r="4.6646" fill="#8B579E" fill-opacity="0.01" shape-rendering="crispEdges"/>
<circle cx="195.913" cy="144.602" r="4.6646" fill="#8B579E" fill-opacity="0.05" shape-rendering="crispEdges"/>
<circle cx="195.913" cy="144.602" r="4.27588" stroke="url(#paint1_linear_64_7248)" stroke-opacity="0.25" stroke-width="0.777433" shape-rendering="crispEdges"/>
</g>
<circle cx="195.914" cy="144.602" r="2.3323" fill="#8B579E"/>
<g filter="url(#filter1_bdi_64_7248)">
<circle cx="18.6602" cy="143.825" r="4.6646" fill="#8B579E" fill-opacity="0.01" shape-rendering="crispEdges"/>
<circle cx="18.6602" cy="143.825" r="4.6646" fill="#8B579E" fill-opacity="0.05" shape-rendering="crispEdges"/>
<circle cx="18.6602" cy="143.825" r="4.27588" stroke="url(#paint2_linear_64_7248)" stroke-opacity="0.25" stroke-width="0.777433" shape-rendering="crispEdges"/>
</g>
<circle cx="18.659" cy="143.825" r="2.3323" fill="#8B579E"/>
<g filter="url(#filter2_bdi_64_7248)">
<circle cx="80.8501" cy="120.503" r="4.6646" fill="#8B579E" fill-opacity="0.01" shape-rendering="crispEdges"/>
<circle cx="80.8501" cy="120.503" r="4.6646" fill="#8B579E" fill-opacity="0.05" shape-rendering="crispEdges"/>
<circle cx="80.8501" cy="120.503" r="4.27588" stroke="url(#paint3_linear_64_7248)" stroke-opacity="0.25" stroke-width="0.777433" shape-rendering="crispEdges"/>
</g>
<circle cx="80.8513" cy="120.503" r="2.3323" fill="#8B579E"/>
<g filter="url(#filter3_bdi_64_7248)">
<circle cx="131.383" cy="144.602" r="4.6646" fill="#8B579E" fill-opacity="0.01" shape-rendering="crispEdges"/>
<circle cx="131.383" cy="144.602" r="4.6646" fill="#8B579E" fill-opacity="0.05" shape-rendering="crispEdges"/>
<circle cx="131.383" cy="144.602" r="4.27588" stroke="url(#paint4_linear_64_7248)" stroke-opacity="0.25" stroke-width="0.777433" shape-rendering="crispEdges"/>
</g>
<circle cx="131.385" cy="144.602" r="2.3323" fill="#8B579E"/>
<circle cx="131.386" cy="104.177" r="2.3323" fill="#8B579E"/>
<g filter="url(#filter4_bdi_64_7248)">
<circle cx="49.7603" cy="68.4131" r="4.6646" fill="#8B579E" fill-opacity="0.01" shape-rendering="crispEdges"/>
<circle cx="49.7603" cy="68.4131" r="4.6646" fill="#8B579E" fill-opacity="0.05" shape-rendering="crispEdges"/>
<circle cx="49.7603" cy="68.4131" r="4.27588" stroke="url(#paint5_linear_64_7248)" stroke-opacity="0.25" stroke-width="0.777433" shape-rendering="crispEdges"/>
</g>
<circle cx="49.7615" cy="68.4129" r="2.3323" fill="#8B579E"/>
<g filter="url(#filter5_bdi_64_7248)">
<circle cx="131.383" cy="68.4131" r="4.6646" fill="#8B579E" fill-opacity="0.01" shape-rendering="crispEdges"/>
<circle cx="131.383" cy="68.4131" r="4.6646" fill="#8B579E" fill-opacity="0.05" shape-rendering="crispEdges"/>
<circle cx="131.383" cy="68.4131" r="4.27588" stroke="url(#paint6_linear_64_7248)" stroke-opacity="0.25" stroke-width="0.777433" shape-rendering="crispEdges"/>
</g>
<circle cx="131.385" cy="68.4129" r="2.3323" fill="#8B579E"/>
<g filter="url(#filter6_bdi_64_7248)">
<circle cx="195.913" cy="120.503" r="4.6646" fill="#8B579E" fill-opacity="0.01" shape-rendering="crispEdges"/>
<circle cx="195.913" cy="120.503" r="4.6646" fill="#8B579E" fill-opacity="0.05" shape-rendering="crispEdges"/>
<circle cx="195.913" cy="120.503" r="4.27588" stroke="url(#paint7_linear_64_7248)" stroke-opacity="0.25" stroke-width="0.777433" shape-rendering="crispEdges"/>
</g>
<circle cx="195.914" cy="120.503" r="2.3323" fill="#8B579E"/>
</g>
<g filter="url(#filter7_di_64_7248)">
<g clip-path="url(#clip0_64_7248)">
<g filter="url(#filter8_bdi_64_7248)">
<rect x="147.325" y="26.4324" width="97.1791" height="24.8778" rx="12.4389" fill="#8B579E" fill-opacity="0.01" shape-rendering="crispEdges"/>
<rect x="147.325" y="26.4324" width="97.1791" height="24.8778" rx="12.4389" fill="#8B579E" fill-opacity="0.05" shape-rendering="crispEdges"/>
<rect x="147.908" y="27.0155" width="96.0129" height="23.7117" rx="11.8558" stroke="url(#paint8_linear_64_7248)" stroke-opacity="0.25" stroke-width="1.16615" shape-rendering="crispEdges"/>
<path d="M180.412 41.7452C180.07 41.7452 179.759 41.6804 179.479 41.5509C179.204 41.4161 178.987 41.2321 178.826 40.9989C178.665 40.7605 178.585 40.4858 178.585 40.1748C178.585 39.9519 178.626 39.7446 178.709 39.5528C178.797 39.3611 178.917 39.1952 179.067 39.0553C179.217 38.9102 179.394 38.8091 179.596 38.7521C179.321 38.6484 179.106 38.4878 178.95 38.2701C178.795 38.0524 178.717 37.8166 178.717 37.5626C178.717 37.2931 178.785 37.0495 178.919 36.8318C179.059 36.6142 179.256 36.4405 179.51 36.311C179.764 36.1814 180.065 36.1166 180.412 36.1166C180.764 36.1166 181.065 36.1814 181.314 36.311C181.568 36.4405 181.762 36.6142 181.897 36.8318C182.032 37.0495 182.099 37.2931 182.099 37.5626C182.099 37.8166 182.021 38.0524 181.866 38.2701C181.715 38.4878 181.503 38.6484 181.228 38.7521C181.43 38.8091 181.607 38.9102 181.757 39.0553C181.907 39.1952 182.024 39.3611 182.107 39.5528C182.195 39.7446 182.239 39.9519 182.239 40.1748C182.239 40.4858 182.159 40.7605 181.998 40.9989C181.837 41.2321 181.617 41.4161 181.337 41.5509C181.062 41.6804 180.754 41.7452 180.412 41.7452ZM180.412 41.1699C180.801 41.1699 181.094 41.0766 181.29 40.89C181.487 40.6983 181.586 40.4469 181.586 40.1359C181.586 39.7835 181.477 39.5166 181.259 39.3352C181.047 39.1538 180.764 39.0631 180.412 39.0631C180.06 39.0631 179.774 39.1538 179.557 39.3352C179.344 39.5166 179.238 39.7835 179.238 40.1359C179.238 40.4469 179.334 40.6983 179.526 40.89C179.723 41.0766 180.018 41.1699 180.412 41.1699ZM180.412 38.5189C180.723 38.5189 180.972 38.4333 181.158 38.2623C181.345 38.0913 181.438 37.871 181.438 37.6015C181.438 37.2957 181.345 37.0651 181.158 36.9096C180.977 36.7541 180.728 36.6763 180.412 36.6763C180.096 36.6763 179.844 36.7541 179.658 36.9096C179.476 37.0651 179.386 37.2957 179.386 37.6015C179.386 37.871 179.479 38.0913 179.666 38.2623C179.852 38.4333 180.101 38.5189 180.412 38.5189ZM183.132 41.6519V41.1932C183.516 40.903 183.879 40.6102 184.221 40.3147C184.563 40.0193 184.866 39.7265 185.13 39.4362C185.395 39.1408 185.602 38.8532 185.752 38.5733C185.903 38.2934 185.978 38.0239 185.978 37.7648C185.978 37.573 185.941 37.3968 185.869 37.2361C185.801 37.0702 185.69 36.9355 185.535 36.8318C185.384 36.7282 185.18 36.6763 184.92 36.6763C184.672 36.6763 184.464 36.7308 184.298 36.8396C184.133 36.9433 184.008 37.0832 183.925 37.2594C183.842 37.4305 183.801 37.6196 183.801 37.8269H183.171C183.176 37.4693 183.254 37.1635 183.404 36.9096C183.555 36.6504 183.762 36.4535 184.026 36.3187C184.291 36.184 184.591 36.1166 184.928 36.1166C185.26 36.1166 185.553 36.1788 185.807 36.3032C186.061 36.4224 186.26 36.6038 186.405 36.8474C186.556 37.0858 186.631 37.3838 186.631 37.7414C186.631 37.9954 186.576 38.2494 186.467 38.5033C186.364 38.7573 186.221 39.0061 186.04 39.2496C185.859 39.4881 185.656 39.7187 185.434 39.9416C185.216 40.1644 184.99 40.3743 184.757 40.5713C184.524 40.7682 184.304 40.947 184.096 41.1077H186.817V41.6519H183.132ZM188.48 41.6519L191.644 36.2099H192.297L189.133 41.6519H188.48ZM192.033 41.7452C191.8 41.7452 191.59 41.6934 191.403 41.5897C191.217 41.4809 191.066 41.328 190.952 41.131C190.843 40.9341 190.789 40.7034 190.789 40.4391C190.789 40.1696 190.843 39.939 190.952 39.7472C191.066 39.5503 191.217 39.4 191.403 39.2963C191.59 39.1875 191.8 39.133 192.033 39.133C192.271 39.133 192.481 39.1875 192.663 39.2963C192.849 39.4 192.997 39.5503 193.106 39.7472C193.215 39.939 193.269 40.1696 193.269 40.4391C193.269 40.7034 193.215 40.9341 193.106 41.131C192.997 41.328 192.849 41.4809 192.663 41.5897C192.476 41.6934 192.266 41.7452 192.033 41.7452ZM192.025 41.2399C192.149 41.2399 192.264 41.2114 192.367 41.1544C192.471 41.0922 192.554 41.0015 192.616 40.8823C192.683 40.7631 192.717 40.6153 192.717 40.4391C192.717 40.2577 192.686 40.1074 192.624 39.9882C192.562 39.869 192.479 39.7809 192.375 39.7239C192.271 39.6617 192.157 39.6306 192.033 39.6306C191.914 39.6306 191.8 39.6617 191.691 39.7239C191.587 39.7809 191.502 39.869 191.434 39.9882C191.372 40.1074 191.341 40.2577 191.341 40.4391C191.341 40.6153 191.372 40.7631 191.434 40.8823C191.502 41.0015 191.587 41.0922 191.691 41.1544C191.794 41.2114 191.906 41.2399 192.025 41.2399ZM188.799 38.7365C188.566 38.7365 188.356 38.6847 188.169 38.5811C187.982 38.4722 187.832 38.3193 187.718 38.1224C187.609 37.9254 187.555 37.6948 187.555 37.4305C187.555 37.1609 187.609 36.9303 187.718 36.7385C187.832 36.5416 187.982 36.3913 188.169 36.2876C188.361 36.1788 188.573 36.1244 188.807 36.1244C189.04 36.1244 189.25 36.1788 189.436 36.2876C189.623 36.3913 189.771 36.5416 189.879 36.7385C189.988 36.9303 190.043 37.1609 190.043 37.4305C190.043 37.6948 189.988 37.9254 189.879 38.1224C189.771 38.3193 189.62 38.4722 189.428 38.5811C189.242 38.6847 189.032 38.7365 188.799 38.7365ZM188.799 38.2312C188.923 38.2312 189.037 38.2027 189.141 38.1457C189.244 38.0835 189.327 37.9928 189.39 37.8736C189.452 37.7544 189.483 37.6067 189.483 37.4305C189.483 37.2491 189.452 37.0988 189.39 36.9795C189.327 36.8552 189.244 36.7645 189.141 36.7074C189.037 36.6452 188.926 36.6142 188.807 36.6142C188.687 36.6142 188.573 36.6452 188.464 36.7074C188.356 36.7645 188.268 36.8552 188.2 36.9795C188.138 37.0988 188.107 37.2491 188.107 37.4305C188.107 37.6067 188.138 37.7544 188.2 37.8736C188.268 37.9928 188.353 38.0835 188.457 38.1457C188.566 38.2027 188.68 38.2312 188.799 38.2312ZM196.509 41.6519V37.1273C196.509 36.8785 196.551 36.6763 196.634 36.5209C196.716 36.3602 196.838 36.2436 196.999 36.171C197.165 36.0933 197.367 36.0544 197.605 36.0544H198.204V36.6142H197.714C197.517 36.6142 197.375 36.6556 197.287 36.7385C197.204 36.8163 197.162 36.9536 197.162 37.1506V41.6519H196.509ZM195.872 38.1146V37.5626H198.251V38.1146H195.872ZM200.185 41.7452C199.874 41.7452 199.615 41.6882 199.407 41.5742C199.2 41.455 199.045 41.2995 198.941 41.1077C198.837 40.9108 198.785 40.7009 198.785 40.478C198.785 40.2085 198.853 39.9804 198.988 39.7939C199.127 39.6021 199.322 39.457 199.571 39.3585C199.819 39.26 200.11 39.2108 200.441 39.2108H201.46C201.46 38.9465 201.429 38.7262 201.366 38.55C201.304 38.3737 201.203 38.2416 201.063 38.1535C200.923 38.0654 200.737 38.0213 200.504 38.0213C200.27 38.0213 200.071 38.0809 199.905 38.2001C199.739 38.3141 199.635 38.4852 199.594 38.7132H198.925C198.956 38.4437 199.047 38.2183 199.197 38.0369C199.348 37.8503 199.537 37.7103 199.765 37.617C199.998 37.5186 200.244 37.4693 200.504 37.4693C200.872 37.4693 201.175 37.5367 201.413 37.6715C201.652 37.801 201.828 37.985 201.942 38.2234C202.056 38.4567 202.113 38.734 202.113 39.0553V41.6519H201.53L201.491 40.9522C201.439 41.0611 201.372 41.1647 201.289 41.2632C201.211 41.3565 201.118 41.4394 201.009 41.512C200.9 41.5845 200.776 41.6416 200.636 41.683C200.501 41.7245 200.351 41.7452 200.185 41.7452ZM200.278 41.1932C200.449 41.1932 200.607 41.1544 200.752 41.0766C200.897 40.9989 201.022 40.8952 201.125 40.7656C201.234 40.6309 201.317 40.4806 201.374 40.3147C201.431 40.1489 201.46 39.9753 201.46 39.7939V39.7161H200.496C200.252 39.7161 200.053 39.7472 199.897 39.8094C199.747 39.8716 199.638 39.9597 199.571 40.0737C199.503 40.1826 199.47 40.307 199.47 40.4469C199.47 40.5972 199.501 40.7294 199.563 40.8434C199.625 40.9522 199.716 41.0377 199.835 41.0999C199.959 41.1621 200.107 41.1932 200.278 41.1932ZM204.669 41.7452C204.301 41.7452 203.995 41.6908 203.752 41.5819C203.513 41.4679 203.332 41.3124 203.207 41.1155C203.083 40.9134 203.008 40.6801 202.982 40.4158H203.65C203.671 40.5557 203.718 40.6853 203.79 40.8045C203.868 40.9185 203.98 41.0118 204.125 41.0844C204.27 41.157 204.454 41.1932 204.677 41.1932C204.853 41.1932 205.003 41.1673 205.128 41.1155C205.252 41.0585 205.345 40.9807 205.407 40.8823C205.475 40.7838 205.509 40.6698 205.509 40.5402C205.509 40.3692 205.47 40.237 205.392 40.1437C205.319 40.0452 205.211 39.9727 205.065 39.926C204.925 39.8742 204.749 39.8353 204.537 39.8094C204.309 39.7783 204.107 39.7342 203.93 39.6772C203.754 39.6202 203.604 39.5451 203.479 39.4518C203.36 39.3585 203.27 39.2419 203.207 39.1019C203.145 38.962 203.114 38.7961 203.114 38.6044C203.114 38.3815 203.174 38.1846 203.293 38.0135C203.412 37.8425 203.58 37.7103 203.798 37.617C204.021 37.5186 204.283 37.4693 204.583 37.4693C205.024 37.4693 205.371 37.5704 205.625 37.7725C205.884 37.9747 206.037 38.2623 206.084 38.6355H205.439C205.413 38.4437 205.325 38.2934 205.174 38.1846C205.024 38.0757 204.824 38.0213 204.576 38.0213C204.311 38.0213 204.112 38.0705 203.977 38.169C203.842 38.2675 203.775 38.3971 203.775 38.5577C203.775 38.6769 203.803 38.7858 203.86 38.8843C203.923 38.9775 204.026 39.0579 204.171 39.1253C204.316 39.1875 204.511 39.2341 204.754 39.2652C205.06 39.3015 205.319 39.3611 205.532 39.444C205.744 39.5218 205.905 39.6435 206.014 39.8094C206.128 39.9753 206.182 40.2007 206.177 40.4858C206.177 40.7553 206.112 40.9833 205.983 41.1699C205.858 41.3565 205.682 41.499 205.454 41.5975C205.231 41.696 204.969 41.7452 204.669 41.7452ZM208.559 41.6519C208.325 41.6519 208.123 41.6156 207.952 41.5431C207.781 41.4705 207.649 41.3487 207.556 41.1777C207.468 41.0015 207.424 40.7656 207.424 40.4702V38.1146H206.708V37.5626H207.424L207.509 36.5442H208.077V37.5626H209.235V38.1146H208.077V40.4702C208.077 40.7138 208.126 40.8797 208.224 40.9678C208.323 41.0507 208.496 41.0922 208.745 41.0922H209.219V41.6519H208.559ZM211.719 41.7452C211.357 41.7452 211.035 41.6571 210.755 41.4809C210.476 41.3047 210.255 41.0559 210.095 40.7345C209.939 40.4132 209.861 40.0374 209.861 39.6073C209.861 39.1771 209.939 38.8013 210.095 38.48C210.255 38.1587 210.476 37.9099 210.755 37.7337C211.041 37.5574 211.367 37.4693 211.735 37.4693C212.129 37.4693 212.458 37.5574 212.722 37.7337C212.987 37.9099 213.186 38.1457 213.321 38.4411C213.456 38.7365 213.523 39.0605 213.523 39.4129C213.523 39.4647 213.523 39.5166 213.523 39.5684C213.523 39.6202 213.521 39.6824 213.515 39.755H210.351V39.2496H212.886C212.875 38.8506 212.759 38.5474 212.536 38.3401C212.318 38.1276 212.046 38.0213 211.719 38.0213C211.502 38.0213 211.3 38.0757 211.113 38.1846C210.932 38.2882 210.784 38.4437 210.67 38.651C210.556 38.8583 210.499 39.1175 210.499 39.4285V39.6461C210.499 39.9882 210.556 40.2759 210.67 40.5091C210.784 40.7371 210.932 40.9082 211.113 41.0222C211.3 41.1362 211.502 41.1932 211.719 41.1932C212.01 41.1932 212.238 41.1388 212.404 41.03C212.569 40.9159 212.691 40.7553 212.769 40.548H213.414C213.352 40.776 213.243 40.9807 213.088 41.1621C212.937 41.3435 212.746 41.4861 212.512 41.5897C212.284 41.6934 212.02 41.7452 211.719 41.7452ZM214.428 41.6519V37.5626H215.019L215.066 38.309C215.159 38.1224 215.281 37.9669 215.431 37.8425C215.581 37.7181 215.763 37.6248 215.975 37.5626C216.193 37.5004 216.436 37.4693 216.706 37.4693V38.1535H216.302C216.146 38.1535 215.996 38.1742 215.851 38.2157C215.706 38.2571 215.574 38.3245 215.454 38.4178C215.34 38.5111 215.25 38.6381 215.182 38.7987C215.115 38.9594 215.081 39.1615 215.081 39.4051V41.6519H214.428Z" fill="#666666"/>
<g clip-path="url(#clip1_64_7248)">
<circle opacity="0.1" cx="232.067" cy="38.8712" r="9.32919" fill="#666666"/>
<g opacity="0.5" filter="url(#filter9_i_64_7248)">
<path fill-rule="evenodd" clip-rule="evenodd" d="M232.844 36.5384C232.844 36.1091 232.496 35.761 232.067 35.761V35.761C231.637 35.761 231.289 36.1091 231.289 36.5384V36.9271C231.289 37.5711 230.767 38.0931 230.123 38.0931H229.732C229.302 38.0931 228.954 38.4412 228.954 38.8705V38.8705C228.954 39.2999 229.302 39.648 229.732 39.648H230.123C230.767 39.648 231.289 40.1701 231.289 40.8142V41.203C231.289 41.6324 231.637 41.9804 232.067 41.9804V41.9804C232.496 41.9804 232.844 41.6324 232.844 41.203V40.8127C232.844 40.1694 233.366 39.648 234.009 39.648H234.396C234.825 39.648 235.174 39.2999 235.174 38.8705V38.8705C235.174 38.4412 234.825 38.0931 234.396 38.0931H234.009C233.366 38.0931 232.844 37.5717 232.844 36.9284V36.5384Z" fill="#666666"/>
</g>
</g>
</g>
</g>
<rect x="144.799" y="23.9057" width="102.232" height="29.9312" rx="14.9656" stroke="#8B579E" stroke-opacity="0.4" stroke-width="1.16615" shape-rendering="crispEdges"/>
</g>
<g filter="url(#filter10_d_64_7248)">
<rect x="27.2119" y="187.361" width="59.0849" height="21.7681" rx="6.21946" fill="#F8F8F8" fill-opacity="0.05" style="mix-blend-mode:luminosity" shape-rendering="crispEdges"/>
<rect x="27.795" y="187.944" width="57.9187" height="20.602" rx="5.63639" stroke="url(#paint9_linear_64_7248)" stroke-opacity="0.25" stroke-width="1.16615" shape-rendering="crispEdges"/>
<rect x="39.6528" y="196.691" width="34.207" height="3.10973" rx="0.777433" fill="#8B579E" fill-opacity="0.95"/>
</g>
<rect opacity="0.1" x="114.285" y="196.691" width="34.207" height="3.10973" rx="0.777433" fill="#8B579E" fill-opacity="0.7"/>
<rect opacity="0.1" x="188.919" y="196.691" width="34.207" height="3.10973" rx="0.777433" fill="#8B579E" fill-opacity="0.7"/>
<path d="M132.814 93.2063L123.581 104.285C123.22 104.719 123.039 104.936 123.036 105.119C123.034 105.278 123.105 105.43 123.229 105.53C123.371 105.645 123.654 105.645 124.218 105.645H131.777L130.74 113.938L139.973 102.859C140.334 102.425 140.515 102.208 140.518 102.025C140.52 101.866 140.449 101.714 140.325 101.614C140.183 101.499 139.901 101.499 139.336 101.499H131.777L132.814 93.2063Z" fill="#8B579E" stroke="#8B579E" stroke-width="2.07315" stroke-linecap="round" stroke-linejoin="round"/>
<path opacity="0.25" d="M129.811 91.4117C130.233 90.585 130.965 89.9595 131.848 89.673C132.731 89.3864 133.691 89.4623 134.518 89.8838C135.344 90.3053 135.97 91.0379 136.256 91.9206C136.543 92.8032 136.467 93.7636 136.046 94.5903" stroke="#8B579E" stroke-width="2.3323" stroke-linecap="round" stroke-linejoin="round"/>
<path opacity="0.25" d="M133.764 115.833C133.3 116.636 132.536 117.223 131.639 117.463C130.743 117.703 129.788 117.577 128.984 117.113C128.181 116.649 127.594 115.885 127.354 114.989C127.114 114.092 127.24 113.137 127.704 112.334" stroke="#8B579E" stroke-width="2.3323" stroke-linecap="round" stroke-linejoin="round"/>
<defs>
<filter id="filter0_bdi_64_7248" x="181.919" y="130.609" width="27.9875" height="49.7557" filterUnits="userSpaceOnUse" color-interpolation-filters="sRGB">
<feFlood flood-opacity="0" result="BackgroundImageFix"/>
<feGaussianBlur in="BackgroundImageFix" stdDeviation="4.6646"/>
<feComposite in2="SourceAlpha" operator="in" result="effect1_backgroundBlur_64_7248"/>
<feColorMatrix in="SourceAlpha" type="matrix" values="0 0 0 0 0 0 0 0 0 0 0 0 0 0 0 0 0 0 127 0" result="hardAlpha"/>
<feMorphology radius="12.4389" operator="erode" in="SourceAlpha" result="effect2_dropShadow_64_7248"/>
<feOffset dy="24.8778"/>
<feGaussianBlur stdDeviation="9.32919"/>
<feComposite in2="hardAlpha" operator="out"/>
<feColorMatrix type="matrix" values="0 0 0 0 0 0 0 0 0 0 0 0 0 0 0 0 0 0 0.4 0"/>
<feBlend mode="multiply" in2="effect1_backgroundBlur_64_7248" result="effect2_dropShadow_64_7248"/>
<feBlend mode="normal" in="SourceGraphic" in2="effect2_dropShadow_64_7248" result="shape"/>
<feColorMatrix in="SourceAlpha" type="matrix" values="0 0 0 0 0 0 0 0 0 0 0 0 0 0 0 0 0 0 127 0" result="hardAlpha"/>
<feOffset/>
<feGaussianBlur stdDeviation="3.10973"/>
<feComposite in2="hardAlpha" operator="arithmetic" k2="-1" k3="1"/>
<feColorMatrix type="matrix" values="0 0 0 0 0.972549 0 0 0 0 0.972549 0 0 0 0 0.972549 0 0 0 0.25 0"/>
<feBlend mode="normal" in2="shape" result="effect3_innerShadow_64_7248"/>
</filter>
<filter id="filter1_bdi_64_7248" x="4.66641" y="129.831" width="27.9875" height="49.7557" filterUnits="userSpaceOnUse" color-interpolation-filters="sRGB">
<feFlood flood-opacity="0" result="BackgroundImageFix"/>
<feGaussianBlur in="BackgroundImageFix" stdDeviation="4.6646"/>
<feComposite in2="SourceAlpha" operator="in" result="effect1_backgroundBlur_64_7248"/>
<feColorMatrix in="SourceAlpha" type="matrix" values="0 0 0 0 0 0 0 0 0 0 0 0 0 0 0 0 0 0 127 0" result="hardAlpha"/>
<feMorphology radius="12.4389" operator="erode" in="SourceAlpha" result="effect2_dropShadow_64_7248"/>
<feOffset dy="24.8778"/>
<feGaussianBlur stdDeviation="9.32919"/>
<feComposite in2="hardAlpha" operator="out"/>
<feColorMatrix type="matrix" values="0 0 0 0 0 0 0 0 0 0 0 0 0 0 0 0 0 0 0.4 0"/>
<feBlend mode="multiply" in2="effect1_backgroundBlur_64_7248" result="effect2_dropShadow_64_7248"/>
<feBlend mode="normal" in="SourceGraphic" in2="effect2_dropShadow_64_7248" result="shape"/>
<feColorMatrix in="SourceAlpha" type="matrix" values="0 0 0 0 0 0 0 0 0 0 0 0 0 0 0 0 0 0 127 0" result="hardAlpha"/>
<feOffset/>
<feGaussianBlur stdDeviation="3.10973"/>
<feComposite in2="hardAlpha" operator="arithmetic" k2="-1" k3="1"/>
<feColorMatrix type="matrix" values="0 0 0 0 0.972549 0 0 0 0 0.972549 0 0 0 0 0.972549 0 0 0 0.25 0"/>
<feBlend mode="normal" in2="shape" result="effect3_innerShadow_64_7248"/>
</filter>
<filter id="filter2_bdi_64_7248" x="66.8564" y="106.509" width="27.9875" height="49.7557" filterUnits="userSpaceOnUse" color-interpolation-filters="sRGB">
<feFlood flood-opacity="0" result="BackgroundImageFix"/>
<feGaussianBlur in="BackgroundImageFix" stdDeviation="4.6646"/>
<feComposite in2="SourceAlpha" operator="in" result="effect1_backgroundBlur_64_7248"/>
<feColorMatrix in="SourceAlpha" type="matrix" values="0 0 0 0 0 0 0 0 0 0 0 0 0 0 0 0 0 0 127 0" result="hardAlpha"/>
<feMorphology radius="12.4389" operator="erode" in="SourceAlpha" result="effect2_dropShadow_64_7248"/>
<feOffset dy="24.8778"/>
<feGaussianBlur stdDeviation="9.32919"/>
<feComposite in2="hardAlpha" operator="out"/>
<feColorMatrix type="matrix" values="0 0 0 0 0 0 0 0 0 0 0 0 0 0 0 0 0 0 0.4 0"/>
<feBlend mode="multiply" in2="effect1_backgroundBlur_64_7248" result="effect2_dropShadow_64_7248"/>
<feBlend mode="normal" in="SourceGraphic" in2="effect2_dropShadow_64_7248" result="shape"/>
<feColorMatrix in="SourceAlpha" type="matrix" values="0 0 0 0 0 0 0 0 0 0 0 0 0 0 0 0 0 0 127 0" result="hardAlpha"/>
<feOffset/>
<feGaussianBlur stdDeviation="3.10973"/>
<feComposite in2="hardAlpha" operator="arithmetic" k2="-1" k3="1"/>
<feColorMatrix type="matrix" values="0 0 0 0 0.972549 0 0 0 0 0.972549 0 0 0 0 0.972549 0 0 0 0.25 0"/>
<feBlend mode="normal" in2="shape" result="effect3_innerShadow_64_7248"/>
</filter>
<filter id="filter3_bdi_64_7248" x="117.39" y="130.609" width="27.9875" height="49.7557" filterUnits="userSpaceOnUse" color-interpolation-filters="sRGB">
<feFlood flood-opacity="0" result="BackgroundImageFix"/>
<feGaussianBlur in="BackgroundImageFix" stdDeviation="4.6646"/>
<feComposite in2="SourceAlpha" operator="in" result="effect1_backgroundBlur_64_7248"/>
<feColorMatrix in="SourceAlpha" type="matrix" values="0 0 0 0 0 0 0 0 0 0 0 0 0 0 0 0 0 0 127 0" result="hardAlpha"/>
<feMorphology radius="12.4389" operator="erode" in="SourceAlpha" result="effect2_dropShadow_64_7248"/>
<feOffset dy="24.8778"/>
<feGaussianBlur stdDeviation="9.32919"/>
<feComposite in2="hardAlpha" operator="out"/>
<feColorMatrix type="matrix" values="0 0 0 0 0 0 0 0 0 0 0 0 0 0 0 0 0 0 0.4 0"/>
<feBlend mode="multiply" in2="effect1_backgroundBlur_64_7248" result="effect2_dropShadow_64_7248"/>
<feBlend mode="normal" in="SourceGraphic" in2="effect2_dropShadow_64_7248" result="shape"/>
<feColorMatrix in="SourceAlpha" type="matrix" values="0 0 0 0 0 0 0 0 0 0 0 0 0 0 0 0 0 0 127 0" result="hardAlpha"/>
<feOffset/>
<feGaussianBlur stdDeviation="3.10973"/>
<feComposite in2="hardAlpha" operator="arithmetic" k2="-1" k3="1"/>
<feColorMatrix type="matrix" values="0 0 0 0 0.972549 0 0 0 0 0.972549 0 0 0 0 0.972549 0 0 0 0.25 0"/>
<feBlend mode="normal" in2="shape" result="effect3_innerShadow_64_7248"/>
</filter>
<filter id="filter4_bdi_64_7248" x="35.7665" y="54.4193" width="27.9875" height="49.7557" filterUnits="userSpaceOnUse" color-interpolation-filters="sRGB">
<feFlood flood-opacity="0" result="BackgroundImageFix"/>
<feGaussianBlur in="BackgroundImageFix" stdDeviation="4.6646"/>
<feComposite in2="SourceAlpha" operator="in" result="effect1_backgroundBlur_64_7248"/>
<feColorMatrix in="SourceAlpha" type="matrix" values="0 0 0 0 0 0 0 0 0 0 0 0 0 0 0 0 0 0 127 0" result="hardAlpha"/>
<feMorphology radius="12.4389" operator="erode" in="SourceAlpha" result="effect2_dropShadow_64_7248"/>
<feOffset dy="24.8778"/>
<feGaussianBlur stdDeviation="9.32919"/>
<feComposite in2="hardAlpha" operator="out"/>
<feColorMatrix type="matrix" values="0 0 0 0 0 0 0 0 0 0 0 0 0 0 0 0 0 0 0.4 0"/>
<feBlend mode="multiply" in2="effect1_backgroundBlur_64_7248" result="effect2_dropShadow_64_7248"/>
<feBlend mode="normal" in="SourceGraphic" in2="effect2_dropShadow_64_7248" result="shape"/>
<feColorMatrix in="SourceAlpha" type="matrix" values="0 0 0 0 0 0 0 0 0 0 0 0 0 0 0 0 0 0 127 0" result="hardAlpha"/>
<feOffset/>
<feGaussianBlur stdDeviation="3.10973"/>
<feComposite in2="hardAlpha" operator="arithmetic" k2="-1" k3="1"/>
<feColorMatrix type="matrix" values="0 0 0 0 0.972549 0 0 0 0 0.972549 0 0 0 0 0.972549 0 0 0 0.25 0"/>
<feBlend mode="normal" in2="shape" result="effect3_innerShadow_64_7248"/>
</filter>
<filter id="filter5_bdi_64_7248" x="117.39" y="54.4193" width="27.9875" height="49.7557" filterUnits="userSpaceOnUse" color-interpolation-filters="sRGB">
<feFlood flood-opacity="0" result="BackgroundImageFix"/>
<feGaussianBlur in="BackgroundImageFix" stdDeviation="4.6646"/>
<feComposite in2="SourceAlpha" operator="in" result="effect1_backgroundBlur_64_7248"/>
<feColorMatrix in="SourceAlpha" type="matrix" values="0 0 0 0 0 0 0 0 0 0 0 0 0 0 0 0 0 0 127 0" result="hardAlpha"/>
<feMorphology radius="12.4389" operator="erode" in="SourceAlpha" result="effect2_dropShadow_64_7248"/>
<feOffset dy="24.8778"/>
<feGaussianBlur stdDeviation="9.32919"/>
<feComposite in2="hardAlpha" operator="out"/>
<feColorMatrix type="matrix" values="0 0 0 0 0 0 0 0 0 0 0 0 0 0 0 0 0 0 0.4 0"/>
<feBlend mode="multiply" in2="effect1_backgroundBlur_64_7248" result="effect2_dropShadow_64_7248"/>
<feBlend mode="normal" in="SourceGraphic" in2="effect2_dropShadow_64_7248" result="shape"/>
<feColorMatrix in="SourceAlpha" type="matrix" values="0 0 0 0 0 0 0 0 0 0 0 0 0 0 0 0 0 0 127 0" result="hardAlpha"/>
<feOffset/>
<feGaussianBlur stdDeviation="3.10973"/>
<feComposite in2="hardAlpha" operator="arithmetic" k2="-1" k3="1"/>
<feColorMatrix type="matrix" values="0 0 0 0 0.972549 0 0 0 0 0.972549 0 0 0 0 0.972549 0 0 0 0.25 0"/>
<feBlend mode="normal" in2="shape" result="effect3_innerShadow_64_7248"/>
</filter>
<filter id="filter6_bdi_64_7248" x="181.919" y="106.509" width="27.9875" height="49.7557" filterUnits="userSpaceOnUse" color-interpolation-filters="sRGB">
<feFlood flood-opacity="0" result="BackgroundImageFix"/>
<feGaussianBlur in="BackgroundImageFix" stdDeviation="4.6646"/>
<feComposite in2="SourceAlpha" operator="in" result="effect1_backgroundBlur_64_7248"/>
<feColorMatrix in="SourceAlpha" type="matrix" values="0 0 0 0 0 0 0 0 0 0 0 0 0 0 0 0 0 0 127 0" result="hardAlpha"/>
<feMorphology radius="12.4389" operator="erode" in="SourceAlpha" result="effect2_dropShadow_64_7248"/>
<feOffset dy="24.8778"/>
<feGaussianBlur stdDeviation="9.32919"/>
<feComposite in2="hardAlpha" operator="out"/>
<feColorMatrix type="matrix" values="0 0 0 0 0 0 0 0 0 0 0 0 0 0 0 0 0 0 0.4 0"/>
<feBlend mode="multiply" in2="effect1_backgroundBlur_64_7248" result="effect2_dropShadow_64_7248"/>
<feBlend mode="normal" in="SourceGraphic" in2="effect2_dropShadow_64_7248" result="shape"/>
<feColorMatrix in="SourceAlpha" type="matrix" values="0 0 0 0 0 0 0 0 0 0 0 0 0 0 0 0 0 0 127 0" result="hardAlpha"/>
<feOffset/>
<feGaussianBlur stdDeviation="3.10973"/>
<feComposite in2="hardAlpha" operator="arithmetic" k2="-1" k3="1"/>
<feColorMatrix type="matrix" values="0 0 0 0 0.972549 0 0 0 0 0.972549 0 0 0 0 0.972549 0 0 0 0.25 0"/>
<feBlend mode="normal" in2="shape" result="effect3_innerShadow_64_7248"/>
</filter>
<filter id="filter7_di_64_7248" x="137.996" y="23.3226" width="115.837" height="62.1946" filterUnits="userSpaceOnUse" color-interpolation-filters="sRGB">
<feFlood flood-opacity="0" result="BackgroundImageFix"/>
<feColorMatrix in="SourceAlpha" type="matrix" values="0 0 0 0 0 0 0 0 0 0 0 0 0 0 0 0 0 0 127 0" result="hardAlpha"/>
<feMorphology radius="12.4389" operator="erode" in="SourceAlpha" result="effect1_dropShadow_64_7248"/>
<feOffset dy="24.8778"/>
<feGaussianBlur stdDeviation="9.32919"/>
<feComposite in2="hardAlpha" operator="out"/>
<feColorMatrix type="matrix" values="0 0 0 0 0.701961 0 0 0 0 0.521569 0 0 0 0 0.776471 0 0 0 0.4 0"/>
<feBlend mode="multiply" in2="BackgroundImageFix" result="effect1_dropShadow_64_7248"/>
<feBlend mode="normal" in="SourceGraphic" in2="effect1_dropShadow_64_7248" result="shape"/>
<feColorMatrix in="SourceAlpha" type="matrix" values="0 0 0 0 0 0 0 0 0 0 0 0 0 0 0 0 0 0 127 0" result="hardAlpha"/>
<feOffset/>
<feGaussianBlur stdDeviation="3.10973"/>
<feComposite in2="hardAlpha" operator="arithmetic" k2="-1" k3="1"/>
<feColorMatrix type="matrix" values="0 0 0 0 0.972549 0 0 0 0 0.972549 0 0 0 0 0.972549 0 0 0 0.25 0"/>
<feBlend mode="normal" in2="shape" result="effect2_innerShadow_64_7248"/>
</filter>
<filter id="filter8_bdi_64_7248" x="137.996" y="17.1032" width="115.838" height="65.3044" filterUnits="userSpaceOnUse" color-interpolation-filters="sRGB">
<feFlood flood-opacity="0" result="BackgroundImageFix"/>
<feGaussianBlur in="BackgroundImageFix" stdDeviation="4.6646"/>
<feComposite in2="SourceAlpha" operator="in" result="effect1_backgroundBlur_64_7248"/>
<feColorMatrix in="SourceAlpha" type="matrix" values="0 0 0 0 0 0 0 0 0 0 0 0 0 0 0 0 0 0 127 0" result="hardAlpha"/>
<feMorphology radius="12.4389" operator="erode" in="SourceAlpha" result="effect2_dropShadow_64_7248"/>
<feOffset dy="24.8778"/>
<feGaussianBlur stdDeviation="9.32919"/>
<feComposite in2="hardAlpha" operator="out"/>
<feColorMatrix type="matrix" values="0 0 0 0 0 0 0 0 0 0 0 0 0 0 0 0 0 0 0.4 0"/>
<feBlend mode="multiply" in2="effect1_backgroundBlur_64_7248" result="effect2_dropShadow_64_7248"/>
<feBlend mode="normal" in="SourceGraphic" in2="effect2_dropShadow_64_7248" result="shape"/>
<feColorMatrix in="SourceAlpha" type="matrix" values="0 0 0 0 0 0 0 0 0 0 0 0 0 0 0 0 0 0 127 0" result="hardAlpha"/>
<feOffset/>
<feGaussianBlur stdDeviation="3.10973"/>
<feComposite in2="hardAlpha" operator="arithmetic" k2="-1" k3="1"/>
<feColorMatrix type="matrix" values="0 0 0 0 0.972549 0 0 0 0 0.972549 0 0 0 0 0.972549 0 0 0 0.25 0"/>
<feBlend mode="normal" in2="shape" result="effect3_innerShadow_64_7248"/>
</filter>
<filter id="filter9_i_64_7248" x="228.954" y="35.761" width="6.21924" height="6.21948" filterUnits="userSpaceOnUse" color-interpolation-filters="sRGB">
<feFlood flood-opacity="0" result="BackgroundImageFix"/>
<feBlend mode="normal" in="SourceGraphic" in2="BackgroundImageFix" result="shape"/>
<feColorMatrix in="SourceAlpha" type="matrix" values="0 0 0 0 0 0 0 0 0 0 0 0 0 0 0 0 0 0 127 0" result="hardAlpha"/>
<feOffset/>
<feGaussianBlur stdDeviation="3.10973"/>
<feComposite in2="hardAlpha" operator="arithmetic" k2="-1" k3="1"/>
<feColorMatrix type="matrix" values="0 0 0 0 0.972549 0 0 0 0 0.972549 0 0 0 0 0.972549 0 0 0 0.25 0"/>
<feBlend mode="normal" in2="shape" result="effect1_innerShadow_64_7248"/>
</filter>
<filter id="filter10_d_64_7248" x="8.55353" y="187.361" width="96.4017" height="59.0849" filterUnits="userSpaceOnUse" color-interpolation-filters="sRGB">
<feFlood flood-opacity="0" result="BackgroundImageFix"/>
<feColorMatrix in="SourceAlpha" type="matrix" values="0 0 0 0 0 0 0 0 0 0 0 0 0 0 0 0 0 0 127 0" result="hardAlpha"/>
<feOffset dy="18.6584"/>
<feGaussianBlur stdDeviation="9.32919"/>
<feComposite in2="hardAlpha" operator="out"/>
<feColorMatrix type="matrix" values="0 0 0 0 0.701961 0 0 0 0 0.521569 0 0 0 0 0.776471 0 0 0 0.3 0"/>
<feBlend mode="multiply" in2="BackgroundImageFix" result="effect1_dropShadow_64_7248"/>
<feBlend mode="normal" in="SourceGraphic" in2="effect1_dropShadow_64_7248" result="shape"/>
</filter>
<radialGradient id="paint0_radial_64_7248" cx="0" cy="0" r="1" gradientUnits="userSpaceOnUse" gradientTransform="translate(130.61 122.446) rotate(90) scale(164.719 175.7)">
<stop stop-color="#D9D9D9"/>
<stop offset="0.751624" stop-color="#737373" stop-opacity="0"/>
</radialGradient>
<linearGradient id="paint1_linear_64_7248" x1="195.913" y1="139.938" x2="199.972" y2="150.182" gradientUnits="userSpaceOnUse">
<stop stop-color="#B385C6" stop-opacity="0.4"/>
<stop offset="0.4" stop-color="#B385C6" stop-opacity="0.01"/>
<stop offset="0.6" stop-color="#B385C6" stop-opacity="0"/>
<stop offset="1" stop-color="#B385C6" stop-opacity="0.1"/>
</linearGradient>
<linearGradient id="paint2_linear_64_7248" x1="18.6602" y1="139.16" x2="22.7186" y2="149.405" gradientUnits="userSpaceOnUse">
<stop stop-color="#B385C6" stop-opacity="0.4"/>
<stop offset="0.4" stop-color="#B385C6" stop-opacity="0.01"/>
<stop offset="0.6" stop-color="#B385C6" stop-opacity="0"/>
<stop offset="1" stop-color="#B385C6" stop-opacity="0.1"/>
</linearGradient>
<linearGradient id="paint3_linear_64_7248" x1="80.8501" y1="115.838" x2="84.9085" y2="126.083" gradientUnits="userSpaceOnUse">
<stop stop-color="#B385C6" stop-opacity="0.4"/>
<stop offset="0.4" stop-color="#B385C6" stop-opacity="0.01"/>
<stop offset="0.6" stop-color="#B385C6" stop-opacity="0"/>
<stop offset="1" stop-color="#B385C6" stop-opacity="0.1"/>
</linearGradient>
<linearGradient id="paint4_linear_64_7248" x1="131.383" y1="139.938" x2="135.442" y2="150.182" gradientUnits="userSpaceOnUse">
<stop stop-color="#B385C6" stop-opacity="0.4"/>
<stop offset="0.4" stop-color="#B385C6" stop-opacity="0.01"/>
<stop offset="0.6" stop-color="#B385C6" stop-opacity="0"/>
<stop offset="1" stop-color="#B385C6" stop-opacity="0.1"/>
</linearGradient>
<linearGradient id="paint5_linear_64_7248" x1="49.7603" y1="63.7485" x2="53.8187" y2="73.9931" gradientUnits="userSpaceOnUse">
<stop stop-color="#B385C6" stop-opacity="0.4"/>
<stop offset="0.4" stop-color="#B385C6" stop-opacity="0.01"/>
<stop offset="0.6" stop-color="#B385C6" stop-opacity="0"/>
<stop offset="1" stop-color="#B385C6" stop-opacity="0.1"/>
</linearGradient>
<linearGradient id="paint6_linear_64_7248" x1="131.383" y1="63.7485" x2="135.442" y2="73.9931" gradientUnits="userSpaceOnUse">
<stop stop-color="#B385C6" stop-opacity="0.4"/>
<stop offset="0.4" stop-color="#B385C6" stop-opacity="0.01"/>
<stop offset="0.6" stop-color="#B385C6" stop-opacity="0"/>
<stop offset="1" stop-color="#B385C6" stop-opacity="0.1"/>
</linearGradient>
<linearGradient id="paint7_linear_64_7248" x1="195.913" y1="115.838" x2="199.972" y2="126.083" gradientUnits="userSpaceOnUse">
<stop stop-color="#B385C6" stop-opacity="0.4"/>
<stop offset="0.4" stop-color="#B385C6" stop-opacity="0.01"/>
<stop offset="0.6" stop-color="#B385C6" stop-opacity="0"/>
<stop offset="1" stop-color="#B385C6" stop-opacity="0.1"/>
</linearGradient>
<linearGradient id="paint8_linear_64_7248" x1="195.915" y1="26.4324" x2="199.087" y2="57.7169" gradientUnits="userSpaceOnUse">
<stop stop-color="#B385C6" stop-opacity="0.4"/>
<stop offset="0.4" stop-color="#B385C6" stop-opacity="0.01"/>
<stop offset="0.6" stop-color="#B385C6" stop-opacity="0"/>
<stop offset="1" stop-color="#B385C6" stop-opacity="0.1"/>
</linearGradient>
<linearGradient id="paint9_linear_64_7248" x1="56.7544" y1="187.361" x2="60.7065" y2="214.44" gradientUnits="userSpaceOnUse">
<stop stop-color="#B385C6" stop-opacity="0.4"/>
<stop offset="0.4" stop-color="#B385C6" stop-opacity="0.01"/>
<stop offset="0.6" stop-color="#B385C6" stop-opacity="0"/>
<stop offset="1" stop-color="#B385C6" stop-opacity="0.1"/>
</linearGradient>
<clipPath id="clip0_64_7248">
<rect x="144.216" y="23.3226" width="103.399" height="31.0973" rx="15.5487" fill="white"/>
</clipPath>
<clipPath id="clip1_64_7248">
<rect x="222.736" y="29.5424" width="18.6584" height="18.6584" rx="9.32919" fill="white"/>
</clipPath>
</defs>
</svg>
