<svg width="385" height="120" viewBox="0 0 385 120" fill="none" xmlns="http://www.w3.org/2000/svg">
<g opacity="0.7">
<path opacity="0.6" d="M383.405 60.1329C379.437 74.2488 374.435 67.5497 373.573 65.0775L371.33 58.7772C369.26 53.0351 366.673 53.0351 365.466 58.8569L363.568 68.8257C361.498 79.5123 358.911 79.5123 357.704 68.746L355.806 51.4401C354.599 40.7535 352.012 40.6738 349.942 51.3604L347.699 63.3229C346.837 68.0282 344.25 68.108 341.835 63.4824L340.627 61.1697C339.247 58.4582 336.66 58.4582 334.935 61.0899L333.038 63.9609C331.658 65.9547 329.243 65.9547 327.518 64.0407L324.931 61.0899C323.896 59.8139 321.481 59.7342 319.756 60.8507L317.514 62.2862C316.134 63.1634 314.064 63.1634 312.684 62.2862L311.649 61.6482C309.234 60.1329 306.819 60.3722 306.302 62.2862L304.232 69.1447C302.507 75.2058 299.92 75.2058 298.367 69.1447L295.435 57.2619C294.228 52.3174 291.64 52.2376 289.57 57.1822L289.225 58.1392C287.156 63.0837 284.568 63.0039 283.361 58.0594L281.463 50.0046C279.393 41.5511 276.806 41.5511 275.599 50.0844L272.149 73.85C270.942 81.8251 268.354 81.8251 266.284 73.9298L263.352 62.4457C262.835 60.5317 260.42 60.2127 258.005 61.8077L257.315 62.2064C255.762 63.1634 253.693 63.0837 252.313 62.1267L251.623 61.6482C249.898 60.2127 247.483 60.2924 246.276 61.8874L244.378 64.4395C242.308 67.3105 239.721 67.151 238.686 64.2002L235.409 55.1086C234.029 51.3604 231.441 51.3604 229.544 55.0289L226.957 60.1329C225.922 62.2064 223.507 62.3659 221.437 60.4519L220.057 59.0962C218.677 57.6607 216.262 57.6607 214.71 59.0962L211.778 61.8874C210.57 63.0039 208.328 63.1634 206.775 62.1267L205.568 61.3292C203.498 60.0532 201.256 60.2127 200.393 61.7279L199.013 64.2002C197.289 67.151 194.701 67.151 193.321 64.1204L190.561 58.1392C189.354 55.5074 186.767 55.4276 184.869 57.9797L182.454 61.4089C181.42 62.7647 179.177 62.9242 177.28 61.7279L176.59 61.2494C174.52 59.9734 172.278 60.1329 171.415 61.6482L168.655 66.2737C166.758 69.384 164.171 69.384 162.963 66.194L160.893 61.2494C159.168 56.8632 156.409 56.8632 155.029 61.3292L152.959 67.6295C151.234 73.212 148.647 73.1323 147.094 67.6295L145.542 61.6482C143.644 54.3909 141.057 54.3909 139.677 61.7279L138.815 66.0345C137.09 75.2058 134.502 75.2058 132.95 66.0345L131.225 55.9061C129.5 45.9373 126.913 45.9373 125.36 55.9061L123.463 68.0282C121.738 79.1933 119.151 79.1933 117.598 68.0282L115.356 52.3174C113.804 41.2321 111.216 41.2321 109.491 52.3174L107.594 64.2002C106.904 68.5865 104.317 68.6662 101.729 64.4395L99.6596 60.8507C98.2796 58.4582 95.6923 58.4582 93.9674 60.7709L92.07 63.4027C90.5176 65.4762 88.1028 65.4762 86.5504 63.4027L85.1704 61.4887C84.1355 60.1329 81.7207 59.9734 79.9958 61.1697L77.9259 62.4457C76.546 63.3229 74.4761 63.3229 73.0962 62.4457L71.8888 61.6482C69.6464 60.2127 67.2315 60.4519 66.5416 62.2064L63.7818 69.703C61.7119 75.445 59.1245 75.445 57.9171 69.6232L54.8123 53.1149C53.4324 46.0171 50.8451 46.0171 48.9477 53.0351L46.5328 62.4457C45.4979 66.3535 42.9105 66.4332 40.6682 62.6052L38.9433 59.6544C37.7359 57.5809 35.321 57.5012 33.4236 59.4152L31.5262 61.4887C30.1463 62.8444 27.904 62.9242 26.1791 61.6482C24.4542 60.2127 22.0393 60.2924 20.8319 61.8874L18.417 65.1572C16.6922 67.6295 13.9323 68.427 11 61.5684" stroke="#971BB3" stroke-width="2" stroke-miterlimit="10" stroke-linecap="round" stroke-linejoin="round"/>
<path opacity="0.6" d="M373.405 58.0936C369.437 43.9778 364.435 50.6768 363.573 53.1491L361.33 59.4494C359.26 65.1914 356.673 65.1914 355.466 59.3696L353.568 49.4008C351.498 38.7143 348.911 38.7143 347.704 49.4806L345.806 66.7864C344.599 77.473 342.012 77.5528 339.942 66.8662L337.699 54.9036C336.837 50.1983 334.25 50.1186 331.835 54.7441L330.627 57.0569C329.247 59.7684 326.66 59.7684 324.935 57.1366L323.038 54.2656C321.658 52.2719 319.243 52.2718 317.518 54.1859L314.931 57.1366C313.896 58.4126 311.481 58.4924 309.756 57.3759L307.514 55.9404C306.134 55.0631 304.064 55.0631 302.684 55.9404L301.649 56.5784C299.234 58.0936 296.819 57.8544 296.302 55.9404L294.232 49.0818C292.507 43.0208 289.92 43.0208 288.367 49.0818L285.435 60.9647C284.228 65.9092 281.64 65.9889 279.57 61.0444L279.225 60.0874C277.156 55.1429 274.568 55.2226 273.361 60.1672L271.463 68.222C269.393 76.6755 266.806 76.6755 265.599 68.1422L262.149 44.3765C260.942 36.4015 258.354 36.4015 256.284 44.2968L253.352 55.7809C252.835 57.6949 250.42 58.0139 248.005 56.4189L247.315 56.0201C245.762 55.0631 243.693 55.1429 242.313 56.0999L241.623 56.5784C239.898 58.0139 237.483 57.9341 236.276 56.3391L234.378 53.7871C232.308 50.9161 229.721 51.0756 228.686 54.0264L225.409 63.1179C224.029 66.8662 221.441 66.8662 219.544 63.1977L216.957 58.0936C215.922 56.0201 213.507 55.8606 211.437 57.7746L210.057 59.1304C208.677 60.5659 206.262 60.5659 204.71 59.1304L201.778 56.3391C200.57 55.2226 198.328 55.0631 196.775 56.0999L195.568 56.8974C193.498 58.1734 191.256 58.0139 190.393 56.4986L189.013 54.0264C187.289 51.0756 184.701 51.0756 183.321 54.1061L180.561 60.0874C179.354 62.7192 176.767 62.7989 174.869 60.2469L172.454 56.8176C171.42 55.4619 169.177 55.3024 167.28 56.4986L166.59 56.9771C164.52 58.2531 162.278 58.0936 161.415 56.5784L158.655 51.9528C156.758 48.8426 154.171 48.8426 152.963 52.0326L150.893 56.9771C149.168 61.3634 146.409 61.3634 145.029 56.8974L142.959 50.5971C141.234 45.0146 138.647 45.0943 137.094 50.5971L135.542 56.5784C133.644 63.8357 131.057 63.8357 129.677 56.4986L128.815 52.1921C127.09 43.0208 124.502 43.0208 122.95 52.1921L121.225 62.3204C119.5 72.2892 116.913 72.2892 115.36 62.3204L113.463 50.1983C111.738 39.0333 109.151 39.0333 107.598 50.1983L105.356 65.9092C103.804 76.9945 101.216 76.9945 99.4915 65.9092L97.5941 54.0264C96.9041 49.6401 94.3168 49.5603 91.7294 53.7871L89.6596 57.3759C88.2796 59.7684 85.6923 59.7684 83.9674 57.4556L82.07 54.8239C80.5176 52.7504 78.1028 52.7504 76.5504 54.8239L75.1704 56.7379C74.1355 58.0936 71.7207 58.2531 69.9958 57.0569L67.9259 55.7809C66.546 54.9036 64.4761 54.9036 63.0962 55.7809L61.8888 56.5784C59.6464 58.0139 57.2315 57.7746 56.5416 56.0201L53.7818 48.5236C51.7119 42.7815 49.1245 42.7815 47.9171 48.6033L44.8123 65.1117C43.4324 72.2095 40.8451 72.2095 38.9477 65.1914L36.5328 55.7809C35.4979 51.8731 32.9105 51.7933 30.6682 55.6214L28.9433 58.5721C27.7359 60.6457 25.321 60.7254 23.4236 58.8114L21.5262 56.7379C20.1463 55.3821 17.904 55.3024 16.1791 56.5784C14.4542 58.0139 12.0393 57.9341 10.8319 56.3391L8.41704 53.0694C6.69215 50.5971 3.93232 49.7996 1 56.6581" stroke="#971BB3" stroke-width="2" stroke-miterlimit="10" stroke-linecap="round" stroke-linejoin="round"/>
<path d="M10.8276 61.2496L14.6224 68.1879C16.8648 72.2552 19.2796 72.016 20.3146 67.6297L22.5569 56.6241C24.6268 46.4958 27.2141 46.5755 28.4216 56.7836L30.3189 74.4085C32.3888 93.2296 34.9762 93.1498 36.1836 74.3287L38.081 43.7843C39.2884 24.8834 41.8757 24.8834 43.9456 43.7045L46.188 64.8384C47.0504 73.1325 49.6377 73.292 52.0526 65.1574L53.26 61.0901C54.6399 56.3849 57.2273 56.3051 58.9522 60.9306L60.8496 66.0347C62.2295 69.5437 64.6443 69.6234 66.3692 66.1942L68.9566 60.9306C69.9915 58.6976 72.4064 58.4584 74.1312 60.4521L76.3736 63.0041C77.7535 64.5194 79.8234 64.5194 81.2033 63.0041L82.2382 61.8876C84.6531 59.1761 87.0679 59.6546 87.5854 62.9244L89.6553 74.9667C91.3802 85.5735 93.9675 85.5735 95.5199 74.887L98.4522 53.9126C99.6597 45.2198 102.247 45.14 104.317 53.7531L104.662 55.3481C106.732 64.0409 109.319 63.9612 110.527 55.1886L112.424 40.993C114.494 26.0797 117.081 26.0797 118.289 41.0728L121.738 83.0215C122.946 97.0576 125.533 97.1374 127.603 83.181L130.535 63.0041C131.053 59.6546 133.468 59.0964 135.882 61.8876L136.572 62.6054C138.125 64.2802 140.195 64.2004 141.575 62.3661L142.265 61.4889C143.989 58.9369 146.404 59.0964 147.612 61.8876L149.509 66.4334C151.579 71.4577 154.166 71.2982 155.201 66.0347L158.479 50.0048C159.858 43.3855 162.446 43.3855 164.343 49.8453L166.413 58.9369C167.448 62.6851 169.863 62.8446 171.933 59.4154L173.313 57.0229C174.693 54.5506 177.107 54.5506 178.66 57.0229L181.592 61.9674C182.8 63.9612 185.042 64.1207 186.594 62.3661L187.802 61.0104C189.872 58.6976 192.114 59.0964 192.976 61.8079L194.356 66.1144C196.081 71.378 198.669 71.2982 200.048 66.0347L202.808 55.5076C204.016 50.8821 206.603 50.7226 208.5 55.2683L210.915 61.3294C211.95 63.8017 214.193 64.0409 216.09 61.9674L216.78 61.0901C218.85 58.8571 221.092 59.1761 221.955 61.8876L224.714 70.1019C226.612 75.6047 229.199 75.525 230.407 69.9424L232.477 61.1699C234.201 53.4341 236.961 53.5138 238.341 61.2496L240.411 72.335C242.136 82.0645 244.723 82.0645 246.276 72.2552L247.828 61.6484C249.725 48.8086 252.313 48.8883 253.693 61.7281L254.555 69.3842C256.28 85.5735 258.867 85.5735 260.42 69.3842L262.145 51.5998C263.87 33.975 266.457 34.0547 268.009 51.5998L269.907 72.973C271.632 92.6713 274.219 92.6713 275.771 72.973L278.014 45.2995C279.566 25.7607 282.153 25.6809 283.878 45.2995L285.776 66.1942C286.466 73.93 289.053 74.0895 291.64 66.6727L293.71 60.2926C295.09 56.1456 297.678 56.0659 299.402 60.1331L301.472 64.5194C303.025 68.1879 305.44 68.1879 306.992 64.5194L308.372 61.1699C309.407 58.7774 311.822 58.4584 313.547 60.5319L315.616 62.8446C316.996 64.3599 319.066 64.3599 320.446 62.8446L321.654 61.4889C323.896 58.8571 326.311 59.3356 327.001 62.5256L329.761 75.7642C331.83 85.8925 334.418 85.8128 335.625 75.6047L338.73 46.4958C340.11 33.975 342.697 33.975 344.595 46.416L347.009 62.9244C348.044 69.8627 350.632 70.0222 352.874 63.2434L354.599 57.9799C355.806 54.3113 358.221 54.1518 360.119 57.5811L362.016 61.1699C363.396 63.5624 365.638 63.6421 367.363 61.4091C369.088 58.8571 371.503 59.0166 372.71 61.8079L375.125 67.5499C376.85 71.9362 379.437 71.8565 380.817 67.3107L383.06 59.8141" stroke="#971BB3" stroke-width="2" stroke-miterlimit="10" stroke-linecap="round" stroke-linejoin="round"/>
</g>
<g filter="url(#filter0_f_64_7406)">
<circle cx="196.827" cy="60" r="50" fill="url(#paint0_angular_64_7406)" fill-opacity="0.4"/>
</g>
<g filter="url(#filter1_f_64_7406)">
<circle cx="196.827" cy="60" r="50" fill="url(#paint1_angular_64_7406)" fill-opacity="0.8"/>
</g>
<g filter="url(#filter2_iii_64_7406)">
<circle cx="196.827" cy="60" r="50" fill="#2A0931"/>
<circle cx="196.827" cy="60" r="50" fill="url(#paint2_radial_64_7406)" fill-opacity="0.9"/>
</g>
<mask id="mask0_64_7406" style="mask-type:alpha" maskUnits="userSpaceOnUse" x="146" y="10" width="101" height="100">
<path d="M246.827 60C246.827 87.6142 224.441 110 196.827 110C169.213 110 146.827 87.6142 146.827 60C146.827 32.3858 169.213 10 196.827 10C224.441 10 246.827 32.3858 246.827 60Z" fill="white"/>
</mask>
<g mask="url(#mask0_64_7406)">
<g style="mix-blend-mode:plus-lighter">
<path d="M160.591 49.7248C155.996 66.8168 162.583 87.9989 181.577 96.8854C200.572 105.772 209.991 100.038 218.524 93.6656C227.058 87.2933 244.616 64.8817 228.788 49.6727C212.961 34.4637 199.482 43.2631 182.4 41.2027C175.8 40.4066 165.185 32.6328 160.591 49.7248Z" fill="url(#paint3_linear_64_7406)" fill-opacity="0.8"/>
</g>
<path d="M209.183 75.5069C237.431 56.1153 226.188 29.414 203.679 21.0507C193.181 17.1501 194.785 31.696 181.74 44.5717C168.695 57.4474 151.989 77.9512 169.418 86.8567C186.847 95.7622 197.252 83.6976 209.183 75.5069Z" fill="url(#paint4_radial_64_7406)"/>
<path d="M209.183 75.5069C237.431 56.1153 226.188 29.414 203.679 21.0507C193.181 17.1501 194.785 31.696 181.74 44.5717C168.695 57.4474 151.989 77.9512 169.418 86.8567C186.847 95.7622 197.252 83.6976 209.183 75.5069Z" fill="url(#paint5_linear_64_7406)"/>
<path d="M209.183 75.5069C237.431 56.1153 226.188 29.414 203.679 21.0507C193.181 17.1501 194.785 31.696 181.74 44.5717C168.695 57.4474 151.989 77.9512 169.418 86.8567C186.847 95.7622 197.252 83.6976 209.183 75.5069Z" fill="url(#paint6_radial_64_7406)" fill-opacity="0.2"/>
<path d="M166.294 56.4452C170.827 41.9996 171.07 20.9996 187.607 20.9996C200.662 20.9996 211.327 26.4996 218.068 37.5429C224.81 48.5861 237.827 50.8411 237.827 58.9996C237.827 73.8015 211.727 81.5471 195.827 79.9996C179.926 78.4521 161.761 70.8908 166.294 56.4452Z" fill="url(#paint7_linear_64_7406)" fill-opacity="0.3" style="mix-blend-mode:plus-lighter"/>
<path d="M166.294 56.4452C170.827 41.9996 171.07 20.9996 187.607 20.9996C200.662 20.9996 211.327 26.4996 218.068 37.5429C224.81 48.5861 237.827 50.8411 237.827 58.9996C237.827 73.8015 211.727 81.5471 195.827 79.9996C179.926 78.4521 161.761 70.8908 166.294 56.4452Z" fill="url(#paint8_radial_64_7406)"/>
<path d="M199.066 87.6594C202.681 103.5 228.181 97.5 217.181 83.5C206.181 69.5 206.662 70.4394 197.808 60C197.141 70.146 195.45 71.8188 199.066 87.6594Z" fill="url(#paint9_radial_64_7406)"/>
<path d="M199.066 87.6594C202.681 103.5 228.181 97.5 217.181 83.5C206.181 69.5 206.662 70.4394 197.808 60C197.141 70.146 195.45 71.8188 199.066 87.6594Z" fill="url(#paint10_linear_64_7406)"/>
<path d="M160.828 52.4998C148.939 25.988 201.828 3.99976 193.209 26.292C184.59 48.5843 206.468 84.7717 221.965 57.283C235.209 33.792 172.716 79.0116 160.828 52.4998Z" fill="url(#paint11_angular_64_7406)" style="mix-blend-mode:screen"/>
<g style="mix-blend-mode:plus-lighter" filter="url(#filter3_f_64_7406)">
<path d="M216.324 60.1956C226.708 68.0801 201.663 66.8671 197.997 78.3907C194.332 89.9142 165.621 71.1126 179.671 60.1956C193.721 49.2786 169.286 55.3436 197.997 42.0005C226.708 28.6574 205.939 52.3111 216.324 60.1956Z" fill="url(#paint12_radial_64_7406)" fill-opacity="0.6"/>
</g>
<path d="M196.117 75.3874C183.827 74.0001 179.327 71.5001 181.117 60.3874C182.907 49.2747 188.907 51.7747 196.117 45.3874C203.327 39 207.537 44.6128 213.827 56.5001C220.117 68.3874 208.407 76.7747 196.117 75.3874Z" fill="url(#paint13_radial_64_7406)"/>
</g>
<defs>
<filter id="filter0_f_64_7406" x="136.827" y="-9.53674e-07" width="120" height="120" filterUnits="userSpaceOnUse" color-interpolation-filters="sRGB">
<feFlood flood-opacity="0" result="BackgroundImageFix"/>
<feBlend mode="normal" in="SourceGraphic" in2="BackgroundImageFix" result="shape"/>
<feGaussianBlur stdDeviation="5" result="effect1_foregroundBlur_64_7406"/>
</filter>
<filter id="filter1_f_64_7406" x="144.327" y="7.5" width="105" height="105" filterUnits="userSpaceOnUse" color-interpolation-filters="sRGB">
<feFlood flood-opacity="0" result="BackgroundImageFix"/>
<feBlend mode="normal" in="SourceGraphic" in2="BackgroundImageFix" result="shape"/>
<feGaussianBlur stdDeviation="1.25" result="effect1_foregroundBlur_64_7406"/>
</filter>
<filter id="filter2_iii_64_7406" x="146.827" y="10" width="100" height="100" filterUnits="userSpaceOnUse" color-interpolation-filters="sRGB">
<feFlood flood-opacity="0" result="BackgroundImageFix"/>
<feBlend mode="normal" in="SourceGraphic" in2="BackgroundImageFix" result="shape"/>
<feColorMatrix in="SourceAlpha" type="matrix" values="0 0 0 0 0 0 0 0 0 0 0 0 0 0 0 0 0 0 127 0" result="hardAlpha"/>
<feOffset/>
<feGaussianBlur stdDeviation="10"/>
<feComposite in2="hardAlpha" operator="arithmetic" k2="-1" k3="1"/>
<feColorMatrix type="matrix" values="0 0 0 0 0.8625 0 0 0 0 0.251563 0 0 0 0 0.618125 0 0 0 0.6 0"/>
<feBlend mode="normal" in2="shape" result="effect1_innerShadow_64_7406"/>
<feColorMatrix in="SourceAlpha" type="matrix" values="0 0 0 0 0 0 0 0 0 0 0 0 0 0 0 0 0 0 127 0" result="hardAlpha"/>
<feOffset/>
<feGaussianBlur stdDeviation="7.5"/>
<feComposite in2="hardAlpha" operator="arithmetic" k2="-1" k3="1"/>
<feColorMatrix type="matrix" values="0 0 0 0 0.945833 0 0 0 0 0.185226 0 0 0 0 0.230862 0 0 0 0.5 0"/>
<feBlend mode="normal" in2="effect1_innerShadow_64_7406" result="effect2_innerShadow_64_7406"/>
<feColorMatrix in="SourceAlpha" type="matrix" values="0 0 0 0 0 0 0 0 0 0 0 0 0 0 0 0 0 0 127 0" result="hardAlpha"/>
<feOffset/>
<feGaussianBlur stdDeviation="3"/>
<feComposite in2="hardAlpha" operator="arithmetic" k2="-1" k3="1"/>
<feColorMatrix type="matrix" values="0 0 0 0 1 0 0 0 0 0.7375 0 0 0 0 0.94225 0 0 0 0.6 0"/>
<feBlend mode="normal" in2="effect2_innerShadow_64_7406" result="effect3_innerShadow_64_7406"/>
</filter>
<filter id="filter3_f_64_7406" x="173.827" y="35.9999" width="47" height="48" filterUnits="userSpaceOnUse" color-interpolation-filters="sRGB">
<feFlood flood-opacity="0" result="BackgroundImageFix"/>
<feBlend mode="normal" in="SourceGraphic" in2="BackgroundImageFix" result="shape"/>
<feGaussianBlur stdDeviation="1" result="effect1_foregroundBlur_64_7406"/>
</filter>
<radialGradient id="paint0_angular_64_7406" cx="0" cy="0" r="1" gradientUnits="userSpaceOnUse" gradientTransform="translate(196.827 60) rotate(90) scale(50)">
<stop stop-color="#A829C4"/>
<stop offset="0.313665" stop-color="#3B0D3C"/>
</radialGradient>
<radialGradient id="paint1_angular_64_7406" cx="0" cy="0" r="1" gradientUnits="userSpaceOnUse" gradientTransform="translate(196.827 60) rotate(90) scale(50)">
<stop stop-color="#34093D"/>
<stop offset="0.313665" stop-color="#421343"/>
</radialGradient>
<radialGradient id="paint2_radial_64_7406" cx="0" cy="0" r="1" gradientUnits="userSpaceOnUse" gradientTransform="translate(175.827 16.5) rotate(63.4457) scale(48.6299 57.6881)">
<stop stop-color="#DA72FF" stop-opacity="0.63"/>
<stop offset="1" stop-color="#344B9D" stop-opacity="0"/>
</radialGradient>
<linearGradient id="paint3_linear_64_7406" x1="168.173" y1="85.0791" x2="188.113" y2="52.4074" gradientUnits="userSpaceOnUse">
<stop stop-color="#9777C0" stop-opacity="0.53"/>
<stop offset="1" stop-color="#E95BEC" stop-opacity="0"/>
</linearGradient>
<radialGradient id="paint4_radial_64_7406" cx="0" cy="0" r="1" gradientUnits="userSpaceOnUse" gradientTransform="translate(166.477 56.1882) rotate(32.5356) scale(42.418 43.3732)">
<stop stop-color="#C1506B"/>
<stop offset="1" stop-color="#F7BADE" stop-opacity="0"/>
</radialGradient>
<linearGradient id="paint5_linear_64_7406" x1="175.873" y1="34.5426" x2="184.238" y2="45.1299" gradientUnits="userSpaceOnUse">
<stop stop-color="#C150A2"/>
<stop offset="1" stop-color="#E0ADBC" stop-opacity="0"/>
</linearGradient>
<radialGradient id="paint6_radial_64_7406" cx="0" cy="0" r="1" gradientUnits="userSpaceOnUse" gradientTransform="translate(200.187 60.5331) rotate(109.542) scale(25.2721 22.7986)">
<stop stop-color="#FF2E00"/>
<stop offset="1" stop-color="#FFD6CD" stop-opacity="0"/>
</radialGradient>
<linearGradient id="paint7_linear_64_7406" x1="226.003" y1="67.9132" x2="235.884" y2="49.01" gradientUnits="userSpaceOnUse">
<stop stop-color="#D426FB" stop-opacity="0"/>
<stop offset="0.665732" stop-color="#D426FB"/>
<stop offset="0.911525" stop-color="#EC95FF"/>
</linearGradient>
<radialGradient id="paint8_radial_64_7406" cx="0" cy="0" r="1" gradientUnits="userSpaceOnUse" gradientTransform="translate(168.827 58.4996) rotate(30.6997) scale(18.6078 22.7083)">
<stop stop-color="#8F4791"/>
<stop offset="1" stop-color="#8F4791" stop-opacity="0"/>
</radialGradient>
<radialGradient id="paint9_radial_64_7406" cx="0" cy="0" r="1" gradientUnits="userSpaceOnUse" gradientTransform="translate(211.327 97) rotate(-102.011) scale(24.026 30.7697)">
<stop stop-color="#E375DF" stop-opacity="0"/>
<stop offset="1" stop-color="#FF91B2"/>
</radialGradient>
<linearGradient id="paint10_linear_64_7406" x1="199.109" y1="64.4006" x2="200.614" y2="74.6032" gradientUnits="userSpaceOnUse">
<stop stop-color="white"/>
<stop offset="1" stop-color="white" stop-opacity="0"/>
</linearGradient>
<radialGradient id="paint11_angular_64_7406" cx="0" cy="0" r="1" gradientUnits="userSpaceOnUse" gradientTransform="translate(197.328 63.4997) rotate(-65.0114) scale(55.9545 58.8488)">
<stop offset="0.0076933" stop-color="#FFADAD"/>
<stop offset="0.258126" stop-color="#FF3205" stop-opacity="0"/>
<stop offset="0.570188" stop-color="#FFF1E0" stop-opacity="0"/>
<stop offset="0.762235" stop-color="#7A0E4F" stop-opacity="0"/>
</radialGradient>
<radialGradient id="paint12_radial_64_7406" cx="0" cy="0" r="1" gradientUnits="userSpaceOnUse" gradientTransform="translate(197.997 60.1955) rotate(90) scale(18.1951 18.3261)">
<stop stop-color="white"/>
<stop offset="0.165839" stop-color="white"/>
<stop offset="0.335281" stop-color="#FFD18B"/>
<stop offset="1" stop-color="#FF144D" stop-opacity="0"/>
</radialGradient>
<radialGradient id="paint13_radial_64_7406" cx="0" cy="0" r="1" gradientUnits="userSpaceOnUse" gradientTransform="translate(196.117 60.3874) rotate(-180) scale(15 15)">
<stop stop-color="white"/>
<stop offset="0.165839" stop-color="white"/>
<stop offset="0.335281" stop-color="#FFD18B"/>
<stop offset="1" stop-color="#FF144D" stop-opacity="0"/>
</radialGradient>
</defs>
</svg>
