<svg width="822" height="141" viewBox="0 0 822 141" fill="none" xmlns="http://www.w3.org/2000/svg">
<g opacity="0.7">
<path opacity="0.3" d="M821 67.3186C812.269 97.9772 801.259 83.4273 799.361 78.0578L794.426 64.374C789.871 51.9027 784.176 51.9027 781.519 64.5472L777.343 86.1987C772.787 109.409 767.093 109.409 764.435 86.0255L760.259 48.4385C757.602 25.228 751.908 25.0548 747.352 48.2652L742.417 74.2471C740.519 84.4666 734.824 84.6398 729.509 74.5935L726.852 69.5704C723.815 63.6811 718.12 63.6811 714.324 69.3971L710.148 75.6328C707.111 79.9631 701.796 79.9631 698 75.806L692.306 69.3971C690.028 66.6258 684.713 66.4525 680.917 68.8775L675.982 71.9953C672.945 73.9007 668.389 73.9007 665.352 71.9953L663.074 70.6096C657.759 67.3186 652.445 67.8382 651.306 71.9953L646.75 86.8916C642.954 100.056 637.259 100.056 633.843 86.8916L627.389 61.083C624.732 50.3438 619.037 50.1706 614.482 60.9097L613.722 62.9883C609.167 73.7275 603.472 73.5542 600.815 62.8151L596.639 45.3206C592.083 26.9601 586.389 26.9601 583.732 45.4938L576.139 97.1111C573.482 114.432 567.787 114.432 563.232 97.2843L556.778 72.3418C555.639 68.1847 550.324 67.4918 545.009 70.9561L543.491 71.8221C540.074 73.9007 535.519 73.7275 532.482 71.6489L530.963 70.6096C527.167 67.4918 521.852 67.665 519.195 71.1293L515.019 76.6721C510.463 82.9077 504.769 82.5613 502.491 76.1524L495.278 56.4062C492.241 48.2652 486.547 48.2652 482.371 56.233L476.676 67.3186C474.398 71.8221 469.084 72.1685 464.528 68.0115L461.491 65.0668C458.454 61.949 453.139 61.949 449.722 65.0668L443.269 71.1293C440.611 73.5542 435.676 73.9007 432.259 71.6489L429.602 69.9168C425.047 67.1454 420.111 67.4918 418.213 70.7828L415.176 76.1524C411.38 82.5613 405.685 82.5613 402.648 75.9792L396.574 62.9883C393.917 57.2723 388.222 57.0991 384.047 62.6419L378.732 70.09C376.454 73.0346 371.519 73.381 367.343 70.7828L365.824 69.7436C361.269 66.9722 356.334 67.3186 354.435 70.6096L348.361 80.6559C344.185 87.4112 338.491 87.4112 335.834 80.4827L331.278 69.7436C327.482 60.2169 321.408 60.2169 318.371 69.9168L313.815 83.6006C310.019 95.7254 304.324 95.5522 300.908 83.6006L297.491 70.6096C293.315 54.8473 287.621 54.8473 284.584 70.7828L282.685 80.1363C278.889 100.056 273.195 100.056 269.778 80.1363L265.982 58.1383C262.185 36.4868 256.491 36.4868 253.074 58.1383L248.898 84.4666C245.102 108.716 239.408 108.716 235.991 84.4666L231.056 50.3438C227.639 26.2673 221.945 26.2673 218.148 50.3438L213.972 76.1524C212.454 85.6791 206.759 85.8523 201.065 76.6721L196.509 68.8775C193.472 63.6811 187.778 63.6811 183.982 68.7043L179.806 74.4203C176.389 78.9238 171.074 78.9238 167.658 74.4203L164.621 70.2632C162.343 67.3186 157.028 66.9722 153.232 69.5704L148.676 72.3418C145.639 74.2471 141.084 74.2471 138.047 72.3418L135.389 70.6096C130.454 67.4918 125.139 68.0114 123.621 71.8221L117.547 88.1041C112.991 100.575 107.297 100.575 104.639 87.9309L97.8058 52.0759C94.7688 36.66 89.0743 36.66 84.8984 51.9027L79.5836 72.3418C77.3058 80.8292 71.6114 81.0024 66.6762 72.6882L62.8799 66.2793C60.2225 61.7758 54.9077 61.6026 50.7317 65.7597L46.5558 70.2632C43.5188 73.2078 38.5836 73.381 34.7873 70.6096C30.991 67.4918 25.6762 67.665 23.0188 71.1293L17.704 78.231C13.9077 83.6006 7.83359 85.3327 1.37988 70.4364" stroke="#393F65" stroke-width="2" stroke-miterlimit="10" stroke-linecap="round" stroke-linejoin="round"/>
<path d="M1 69.7437L9.35185 84.8132C14.287 93.647 19.6018 93.1274 21.8796 83.6007L26.8148 59.6974C31.3704 37.6995 37.0648 37.8727 39.7222 60.0438L43.8981 98.3238C48.4537 139.202 54.1481 139.029 56.8055 98.1506L60.9815 31.8102C63.6389 -9.24109 69.3333 -9.24109 73.8889 31.637L78.8241 77.5383C80.7222 95.5524 86.4167 95.8988 91.7315 78.2311L94.3889 69.3973C97.4259 59.1778 103.12 59.0046 106.917 69.0509L111.093 80.1365C114.13 87.7578 119.444 87.931 123.241 80.4829L128.935 69.0509C131.213 64.2009 136.528 63.6813 140.324 68.0116L145.259 73.5544C148.296 76.8454 152.852 76.8454 155.889 73.5544L158.167 71.1294C163.481 65.2402 168.796 66.2795 169.935 73.3812L174.491 99.5363C178.287 122.574 183.981 122.574 187.398 99.3631L193.852 53.8082C196.509 34.9281 202.204 34.7548 206.759 53.4618L207.519 56.926C212.074 75.8062 217.768 75.633 220.426 56.5796L224.602 25.7478C229.157 -6.6429 234.852 -6.6429 237.509 25.921L245.102 117.031C247.759 147.516 253.454 147.689 258.009 117.377L264.463 73.5544C265.602 66.2795 270.917 65.067 276.231 71.1294L277.75 72.6883C281.167 76.3258 285.722 76.1526 288.759 72.1687L290.278 70.2634C294.074 64.7206 299.389 65.067 302.046 71.1294L306.222 81.0025C310.778 91.9149 316.472 91.5685 318.75 80.1365L325.963 45.3208C329 30.9442 334.694 30.9442 338.87 44.9744L343.426 64.7206C345.704 72.8616 351.018 73.208 355.574 65.7599L358.611 60.5635C361.648 55.1939 366.963 55.1939 370.38 60.5635L376.833 71.3026C379.491 75.633 384.426 75.9794 387.843 72.1687L390.5 69.2241C395.056 64.2009 399.991 65.067 401.889 70.9562L404.926 80.3097C408.722 91.7417 414.417 91.5685 417.454 80.1365L423.528 57.2725C426.185 47.2261 431.88 46.8797 436.056 56.7528L441.37 69.917C443.648 75.2865 448.583 75.8062 452.759 71.3026L454.278 69.3973C458.833 64.5474 463.768 65.2402 465.667 71.1294L471.741 88.9703C475.917 100.922 481.611 100.749 484.268 88.6239L488.824 69.5705C492.62 52.7689 498.694 52.9421 501.731 69.7437L506.287 93.8203C510.083 114.952 515.778 114.952 519.194 93.647L522.611 70.6098C526.787 42.7226 532.481 42.8958 535.518 70.783L537.417 87.4114C541.213 122.574 546.907 122.574 550.324 87.4114L554.12 48.785C557.917 10.5051 563.611 10.6783 567.028 48.785L571.204 95.206C575 137.989 580.694 137.989 584.111 95.206L589.046 35.1013C592.463 -7.33575 598.157 -7.50897 601.954 35.1013L606.13 80.4829C607.648 97.2845 613.343 97.6309 619.037 81.5222L623.593 67.6652C626.63 58.6582 632.324 58.4849 636.12 67.3188L640.676 76.8454C644.093 84.8132 649.407 84.8132 652.824 76.8454L655.861 69.5705C658.139 64.3742 663.454 63.6813 667.25 68.1848L671.805 73.208C674.843 76.499 679.398 76.499 682.435 73.208L685.093 70.2634C690.028 64.5474 695.343 65.5866 696.861 72.5151L702.935 101.268C707.491 123.266 713.185 123.093 715.843 100.922L722.676 37.6995C725.713 10.5051 731.407 10.5051 735.583 37.5262L740.898 73.3812C743.176 88.4507 748.87 88.7971 753.805 74.0741L757.602 62.642C760.259 54.6743 765.574 54.3278 769.75 61.776L773.926 69.5705C776.963 74.7669 781.898 74.9401 785.694 70.0902C789.491 64.5474 794.805 64.8938 797.463 70.9562L802.778 83.4275C806.574 92.9542 812.268 92.781 815.305 82.9079L820.241 66.6259" stroke="#393F65" stroke-width="2" stroke-miterlimit="10" stroke-linecap="round" stroke-linejoin="round"/>
</g>
</svg>
