<svg width="348" height="447" viewBox="0 0 348 447" fill="none" xmlns="http://www.w3.org/2000/svg">
<g filter="url(#filter0_bd_64_7194)">
<g clip-path="url(#clip0_64_7194)">
<rect x="6" width="336" height="436" rx="24" fill="url(#paint0_linear_64_7194)" fill-opacity="0.4" shape-rendering="crispEdges"/>
<path fill-rule="evenodd" clip-rule="evenodd" d="M42.6281 46.5868C43.7116 46.3249 44.8191 46.1931 45.93 46.1938C54.7275 46.1938 61.8572 54.3418 61.8572 64.3888C61.8572 74.4388 54.7275 82.5868 45.93 82.5868C37.1325 82.5868 30 74.4418 30 64.3888C30 64.0948 30.0056 63.7978 30.0197 63.5038H30C30 48.3388 40.8 35.9998 54.075 35.9998V42.1078C49.7691 42.1078 45.7978 43.7818 42.6281 46.5868ZM78.2737 46.5868C79.3369 46.3288 80.4394 46.1938 81.57 46.1938C90.3675 46.1938 97.5 54.3418 97.5 64.3888C97.5 74.4388 90.3675 82.5868 81.57 82.5868C72.7725 82.5868 65.6428 74.4418 65.6428 64.3888C65.6428 64.0948 65.6484 63.7978 65.6625 63.5038H65.6428C65.6428 48.3388 76.4428 35.9998 89.7178 35.9998V42.1078C85.4091 42.1078 81.4434 43.7818 78.2737 46.5868Z" fill="#FFBD59"/>
<path d="M50.88 168V140H54.24V168H50.88ZM33 168V140H36.36V168H33ZM35.72 155.12V152.36H51.72V155.12H35.72ZM68.8666 168.48C66.9732 168.48 65.2932 168.04 63.8266 167.16C62.3866 166.28 61.2532 165.053 60.4266 163.48C59.5999 161.88 59.1866 160.027 59.1866 157.92C59.1866 155.787 59.5866 153.933 60.3866 152.36C61.2132 150.787 62.3599 149.56 63.8266 148.68C65.3199 147.8 67.0266 147.36 68.9466 147.36C70.9199 147.36 72.5866 147.8 73.9466 148.68C75.3332 149.56 76.3866 150.72 77.1066 152.16C77.8532 153.573 78.2266 155.133 78.2266 156.84C78.2266 157.107 78.2266 157.387 78.2266 157.68C78.2266 157.973 78.2132 158.307 78.1866 158.68H61.7066V156.08H74.9466C74.8666 154.24 74.2532 152.8 73.1066 151.76C71.9866 150.72 70.5732 150.2 68.8666 150.2C67.7199 150.2 66.6532 150.467 65.6666 151C64.7066 151.507 63.9332 152.267 63.3466 153.28C62.7599 154.267 62.4666 155.507 62.4666 157V158.12C62.4666 159.773 62.7599 161.16 63.3466 162.28C63.9599 163.4 64.7466 164.24 65.7066 164.8C66.6932 165.36 67.7466 165.64 68.8666 165.64C70.2799 165.64 71.4399 165.333 72.3466 164.72C73.2799 164.08 73.9466 163.227 74.3466 162.16H77.6666C77.3466 163.36 76.7866 164.44 75.9866 165.4C75.1866 166.36 74.1866 167.12 72.9866 167.68C71.8132 168.213 70.4399 168.48 68.8666 168.48ZM84.1797 176.8L89.0997 165.76H87.9397L80.0197 147.84H83.6597L90.2197 163.24L97.0997 147.84H100.58L87.6997 176.8H84.1797ZM123.951 168.48C121.898 168.48 120.111 168.107 118.591 167.36C117.071 166.613 115.898 165.573 115.071 164.24C114.245 162.907 113.831 161.36 113.831 159.6H117.351C117.351 160.693 117.605 161.707 118.111 162.64C118.618 163.547 119.351 164.28 120.311 164.84C121.298 165.373 122.511 165.64 123.951 165.64C125.205 165.64 126.271 165.44 127.151 165.04C128.058 164.613 128.738 164.04 129.191 163.32C129.671 162.6 129.911 161.787 129.911 160.88C129.911 159.787 129.671 158.907 129.191 158.24C128.738 157.547 128.111 156.987 127.311 156.56C126.511 156.133 125.578 155.76 124.511 155.44C123.471 155.093 122.378 154.733 121.231 154.36C119.018 153.613 117.391 152.68 116.351 151.56C115.311 150.44 114.791 148.987 114.791 147.2C114.791 145.68 115.138 144.347 115.831 143.2C116.551 142.053 117.565 141.16 118.871 140.52C120.205 139.853 121.778 139.52 123.591 139.52C125.378 139.52 126.925 139.853 128.231 140.52C129.565 141.187 130.605 142.107 131.351 143.28C132.098 144.427 132.471 145.76 132.471 147.28H128.951C128.951 146.507 128.751 145.747 128.351 145C127.951 144.253 127.338 143.64 126.511 143.16C125.711 142.653 124.698 142.4 123.471 142.4C122.458 142.373 121.551 142.547 120.751 142.92C119.978 143.267 119.365 143.773 118.911 144.44C118.485 145.107 118.271 145.92 118.271 146.88C118.271 147.787 118.458 148.52 118.831 149.08C119.231 149.64 119.791 150.12 120.511 150.52C121.258 150.893 122.125 151.24 123.111 151.56C124.098 151.88 125.191 152.24 126.391 152.64C127.751 153.093 128.951 153.653 129.991 154.32C131.058 154.96 131.885 155.787 132.471 156.8C133.085 157.813 133.391 159.107 133.391 160.68C133.391 162.013 133.031 163.28 132.311 164.48C131.618 165.653 130.578 166.613 129.191 167.36C127.805 168.107 126.058 168.48 123.951 168.48ZM147.034 168.48C145.168 168.48 143.488 168.053 141.994 167.2C140.501 166.32 139.328 165.093 138.474 163.52C137.621 161.92 137.194 160.067 137.194 157.96C137.194 155.8 137.621 153.933 138.474 152.36C139.354 150.76 140.541 149.533 142.034 148.68C143.554 147.8 145.248 147.36 147.114 147.36C149.034 147.36 150.728 147.8 152.194 148.68C153.688 149.533 154.861 150.76 155.714 152.36C156.594 153.933 157.034 155.787 157.034 157.92C157.034 160.053 156.594 161.92 155.714 163.52C154.834 165.093 153.648 166.32 152.154 167.2C150.661 168.053 148.954 168.48 147.034 168.48ZM147.074 165.6C148.221 165.6 149.288 165.32 150.274 164.76C151.261 164.173 152.061 163.307 152.674 162.16C153.288 161.013 153.594 159.6 153.594 157.92C153.594 156.213 153.288 154.8 152.674 153.68C152.088 152.533 151.301 151.68 150.314 151.12C149.354 150.533 148.288 150.24 147.114 150.24C145.994 150.24 144.928 150.533 143.914 151.12C142.928 151.68 142.128 152.533 141.514 153.68C140.928 154.8 140.634 156.213 140.634 157.92C140.634 159.6 140.928 161.013 141.514 162.16C142.128 163.307 142.914 164.173 143.874 164.76C144.861 165.32 145.928 165.6 147.074 165.6ZM161.745 168V139.2H165.105V168H161.745ZM177.212 168.48C175.585 168.48 174.225 168.2 173.132 167.64C172.038 167.053 171.225 166.293 170.692 165.36C170.158 164.4 169.892 163.36 169.892 162.24C169.892 160.88 170.238 159.733 170.932 158.8C171.652 157.84 172.652 157.12 173.932 156.64C175.238 156.133 176.772 155.88 178.532 155.88H183.852C183.852 154.627 183.652 153.587 183.252 152.76C182.878 151.907 182.318 151.267 181.572 150.84C180.852 150.413 179.945 150.2 178.852 150.2C177.572 150.2 176.465 150.52 175.532 151.16C174.598 151.8 174.025 152.747 173.812 154H170.372C170.532 152.56 171.012 151.36 171.812 150.4C172.638 149.413 173.678 148.667 174.932 148.16C176.185 147.627 177.492 147.36 178.852 147.36C180.718 147.36 182.265 147.707 183.492 148.4C184.745 149.067 185.678 150.013 186.292 151.24C186.905 152.44 187.212 153.867 187.212 155.52V168H184.212L184.012 164.44C183.745 165 183.398 165.533 182.972 166.04C182.572 166.52 182.092 166.947 181.532 167.32C180.972 167.667 180.332 167.947 179.612 168.16C178.918 168.373 178.118 168.48 177.212 168.48ZM177.732 165.64C178.665 165.64 179.505 165.453 180.252 165.08C181.025 164.68 181.678 164.147 182.212 163.48C182.745 162.787 183.145 162.027 183.412 161.2C183.705 160.373 183.852 159.507 183.852 158.6V158.48H178.812C177.505 158.48 176.452 158.64 175.652 158.96C174.852 159.253 174.278 159.68 173.932 160.24C173.585 160.773 173.412 161.387 173.412 162.08C173.412 162.8 173.572 163.427 173.892 163.96C174.238 164.493 174.732 164.907 175.372 165.2C176.038 165.493 176.825 165.64 177.732 165.64ZM192.409 168V147.84H195.449L195.609 151.36C196.249 150.107 197.156 149.133 198.329 148.44C199.529 147.72 200.889 147.36 202.409 147.36C203.983 147.36 205.343 147.68 206.489 148.32C207.636 148.933 208.529 149.88 209.169 151.16C209.809 152.413 210.129 154.013 210.129 155.96V168H206.769V156.32C206.769 154.293 206.316 152.773 205.409 151.76C204.529 150.747 203.276 150.24 201.649 150.24C200.529 150.24 199.529 150.52 198.649 151.08C197.769 151.613 197.063 152.4 196.529 153.44C196.023 154.453 195.769 155.72 195.769 157.24V168H192.409ZM221.938 168.48C220.311 168.48 218.951 168.2 217.858 167.64C216.765 167.053 215.951 166.293 215.418 165.36C214.885 164.4 214.618 163.36 214.618 162.24C214.618 160.88 214.965 159.733 215.658 158.8C216.378 157.84 217.378 157.12 218.658 156.64C219.965 156.133 221.498 155.88 223.258 155.88H228.578C228.578 154.627 228.378 153.587 227.978 152.76C227.605 151.907 227.045 151.267 226.298 150.84C225.578 150.413 224.671 150.2 223.578 150.2C222.298 150.2 221.191 150.52 220.258 151.16C219.325 151.8 218.751 152.747 218.538 154H215.098C215.258 152.56 215.738 151.36 216.538 150.4C217.365 149.413 218.405 148.667 219.658 148.16C220.911 147.627 222.218 147.36 223.578 147.36C225.445 147.36 226.991 147.707 228.218 148.4C229.471 149.067 230.405 150.013 231.018 151.24C231.631 152.44 231.938 153.867 231.938 155.52V168H228.938L228.738 164.44C228.471 165 228.125 165.533 227.698 166.04C227.298 166.52 226.818 166.947 226.258 167.32C225.698 167.667 225.058 167.947 224.338 168.16C223.645 168.373 222.845 168.48 221.938 168.48ZM222.458 165.64C223.391 165.64 224.231 165.453 224.978 165.08C225.751 164.68 226.405 164.147 226.938 163.48C227.471 162.787 227.871 162.027 228.138 161.2C228.431 160.373 228.578 159.507 228.578 158.6V158.48H223.538C222.231 158.48 221.178 158.64 220.378 158.96C219.578 159.253 219.005 159.68 218.658 160.24C218.311 160.773 218.138 161.387 218.138 162.08C218.138 162.8 218.298 163.427 218.618 163.96C218.965 164.493 219.458 164.907 220.098 165.2C220.765 165.493 221.551 165.64 222.458 165.64ZM234.496 172.92L236.816 164.08H240.296L236.816 172.92H234.496ZM40.4 228.48C38.72 228.48 37.2533 228.2 36 227.64C34.7733 227.08 33.7867 226.307 33.04 225.32C32.32 224.307 31.88 223.12 31.72 221.76H35.16C35.2933 222.453 35.5733 223.093 36 223.68C36.4267 224.267 37 224.747 37.72 225.12C38.4667 225.467 39.3733 225.64 40.44 225.64C41.3733 225.64 42.1467 225.507 42.76 225.24C43.3733 224.947 43.8267 224.56 44.12 224.08C44.44 223.6 44.6 223.08 44.6 222.52C44.6 221.693 44.4 221.067 44 220.64C43.6267 220.213 43.0667 219.88 42.32 219.64C41.5733 219.373 40.6667 219.147 39.6 218.96C38.72 218.8 37.8533 218.587 37 218.32C36.1467 218.053 35.3867 217.707 34.72 217.28C34.0533 216.827 33.52 216.28 33.12 215.64C32.7467 215 32.56 214.213 32.56 213.28C32.56 212.133 32.8533 211.12 33.44 210.24C34.0267 209.333 34.8667 208.627 35.96 208.12C37.08 207.613 38.3733 207.36 39.84 207.36C42 207.36 43.7467 207.88 45.08 208.92C46.4133 209.96 47.2 211.467 47.44 213.44H44.12C43.9867 212.427 43.5467 211.64 42.8 211.08C42.08 210.493 41.08 210.2 39.8 210.2C38.5467 210.2 37.5867 210.453 36.92 210.96C36.28 211.467 35.96 212.133 35.96 212.96C35.96 213.493 36.1333 213.973 36.48 214.4C36.8533 214.8 37.3867 215.147 38.08 215.44C38.8 215.733 39.68 215.973 40.72 216.16C42.0533 216.4 43.2667 216.72 44.36 217.12C45.4533 217.52 46.3333 218.12 47 218.92C47.6933 219.693 48.04 220.8 48.04 222.24C48.04 223.493 47.72 224.587 47.08 225.52C46.4667 226.453 45.5867 227.187 44.44 227.72C43.2933 228.227 41.9467 228.48 40.4 228.48ZM61.7181 228.48C59.8248 228.48 58.1448 228.04 56.6781 227.16C55.2381 226.28 54.1048 225.053 53.2781 223.48C52.4515 221.88 52.0381 220.027 52.0381 217.92C52.0381 215.787 52.4381 213.933 53.2381 212.36C54.0648 210.787 55.2115 209.56 56.6781 208.68C58.1715 207.8 59.8781 207.36 61.7981 207.36C63.7715 207.36 65.4381 207.8 66.7981 208.68C68.1848 209.56 69.2381 210.72 69.9581 212.16C70.7048 213.573 71.0781 215.133 71.0781 216.84C71.0781 217.107 71.0781 217.387 71.0781 217.68C71.0781 217.973 71.0648 218.307 71.0381 218.68H54.5581V216.08H67.7981C67.7181 214.24 67.1048 212.8 65.9581 211.76C64.8381 210.72 63.4248 210.2 61.7181 210.2C60.5715 210.2 59.5048 210.467 58.5181 211C57.5581 211.507 56.7848 212.267 56.1981 213.28C55.6115 214.267 55.3181 215.507 55.3181 217V218.12C55.3181 219.773 55.6115 221.16 56.1981 222.28C56.8115 223.4 57.5981 224.24 58.5581 224.8C59.5448 225.36 60.5981 225.64 61.7181 225.64C63.1315 225.64 64.2915 225.333 65.1981 224.72C66.1315 224.08 66.7981 223.227 67.1981 222.16H70.5181C70.1981 223.36 69.6381 224.44 68.8381 225.4C68.0381 226.36 67.0381 227.12 65.8381 227.68C64.6648 228.213 63.2915 228.48 61.7181 228.48ZM75.6125 228V207.84H78.6525L78.8125 211.36C79.4525 210.107 80.3592 209.133 81.5325 208.44C82.7325 207.72 84.0925 207.36 85.6125 207.36C87.1858 207.36 88.5458 207.68 89.6925 208.32C90.8392 208.933 91.7325 209.88 92.3725 211.16C93.0125 212.413 93.3325 214.013 93.3325 215.96V228H89.9725V216.32C89.9725 214.293 89.5192 212.773 88.6125 211.76C87.7325 210.747 86.4792 210.24 84.8525 210.24C83.7325 210.24 82.7325 210.52 81.8525 211.08C80.9725 211.613 80.2658 212.4 79.7325 213.44C79.2258 214.453 78.9725 215.72 78.9725 217.24V228H75.6125ZM107.461 228.48C105.515 228.48 103.808 228.027 102.341 227.12C100.875 226.187 99.7413 224.92 98.9413 223.32C98.1413 221.72 97.7413 219.907 97.7413 217.88C97.7413 215.853 98.1413 214.053 98.9413 212.48C99.7413 210.88 100.875 209.627 102.341 208.72C103.835 207.813 105.555 207.36 107.501 207.36C109.155 207.36 110.595 207.693 111.821 208.36C113.075 209.027 114.035 209.96 114.701 211.16V199.2H118.061V228H115.021L114.741 224.68C114.315 225.347 113.768 225.973 113.101 226.56C112.435 227.12 111.635 227.587 110.701 227.96C109.768 228.307 108.688 228.48 107.461 228.48ZM107.861 225.56C109.195 225.56 110.368 225.24 111.381 224.6C112.395 223.96 113.181 223.08 113.741 221.96C114.301 220.813 114.581 219.467 114.581 217.92C114.581 216.4 114.301 215.067 113.741 213.92C113.181 212.773 112.395 211.88 111.381 211.24C110.368 210.6 109.195 210.28 107.861 210.28C106.555 210.28 105.395 210.6 104.381 211.24C103.368 211.88 102.581 212.773 102.021 213.92C101.461 215.067 101.181 216.4 101.181 217.92C101.181 219.467 101.461 220.813 102.021 221.96C102.581 223.08 103.368 223.96 104.381 224.6C105.395 225.24 106.555 225.56 107.861 225.56ZM137.564 228V203.76L132.764 204.96V202.56L138.684 200H140.964V228H137.564ZM166.49 228.48C164.437 228.48 162.65 228.107 161.13 227.36C159.61 226.613 158.437 225.573 157.61 224.24C156.784 222.907 156.37 221.36 156.37 219.6H159.89C159.89 220.693 160.144 221.707 160.65 222.64C161.157 223.547 161.89 224.28 162.85 224.84C163.837 225.373 165.05 225.64 166.49 225.64C167.744 225.64 168.81 225.44 169.69 225.04C170.597 224.613 171.277 224.04 171.73 223.32C172.21 222.6 172.45 221.787 172.45 220.88C172.45 219.787 172.21 218.907 171.73 218.24C171.277 217.547 170.65 216.987 169.85 216.56C169.05 216.133 168.117 215.76 167.05 215.44C166.01 215.093 164.917 214.733 163.77 214.36C161.557 213.613 159.93 212.68 158.89 211.56C157.85 210.44 157.33 208.987 157.33 207.2C157.33 205.68 157.677 204.347 158.37 203.2C159.09 202.053 160.104 201.16 161.41 200.52C162.744 199.853 164.317 199.52 166.13 199.52C167.917 199.52 169.464 199.853 170.77 200.52C172.104 201.187 173.144 202.107 173.89 203.28C174.637 204.427 175.01 205.76 175.01 207.28H171.49C171.49 206.507 171.29 205.747 170.89 205C170.49 204.253 169.877 203.64 169.05 203.16C168.25 202.653 167.237 202.4 166.01 202.4C164.997 202.373 164.09 202.547 163.29 202.92C162.517 203.267 161.904 203.773 161.45 204.44C161.024 205.107 160.81 205.92 160.81 206.88C160.81 207.787 160.997 208.52 161.37 209.08C161.77 209.64 162.33 210.12 163.05 210.52C163.797 210.893 164.664 211.24 165.65 211.56C166.637 211.88 167.73 212.24 168.93 212.64C170.29 213.093 171.49 213.653 172.53 214.32C173.597 214.96 174.424 215.787 175.01 216.8C175.624 217.813 175.93 219.107 175.93 220.68C175.93 222.013 175.57 223.28 174.85 224.48C174.157 225.653 173.117 226.613 171.73 227.36C170.344 228.107 168.597 228.48 166.49 228.48ZM193.253 228.48C190.56 228.48 188.187 227.88 186.133 226.68C184.107 225.453 182.52 223.76 181.373 221.6C180.253 219.413 179.693 216.88 179.693 214C179.693 211.147 180.253 208.64 181.373 206.48C182.52 204.293 184.107 202.587 186.133 201.36C188.187 200.133 190.56 199.52 193.253 199.52C196 199.52 198.387 200.133 200.413 201.36C202.44 202.587 204.013 204.293 205.133 206.48C206.28 208.64 206.853 211.147 206.853 214C206.853 216.88 206.28 219.413 205.133 221.6C204.013 223.76 202.44 225.453 200.413 226.68C198.387 227.88 196 228.48 193.253 228.48ZM193.253 225.52C195.28 225.52 197.053 225.067 198.573 224.16C200.12 223.227 201.307 221.907 202.133 220.2C202.987 218.467 203.413 216.4 203.413 214C203.413 211.6 202.987 209.547 202.133 207.84C201.307 206.107 200.12 204.787 198.573 203.88C197.053 202.973 195.28 202.52 193.253 202.52C191.253 202.52 189.48 202.973 187.933 203.88C186.413 204.787 185.227 206.107 184.373 207.84C183.547 209.547 183.133 211.6 183.133 214C183.133 216.4 183.547 218.467 184.373 220.2C185.227 221.907 186.413 223.227 187.933 224.16C189.48 225.067 191.253 225.52 193.253 225.52ZM211.75 228V200H215.11V225.32H228.15V228H211.75ZM251.189 228C249.989 228 248.949 227.813 248.069 227.44C247.189 227.067 246.509 226.44 246.029 225.56C245.575 224.653 245.349 223.44 245.349 221.92V210.68H241.829V207.84H245.349L245.789 202.96H248.709V207.84H254.549V210.68H248.709V221.92C248.709 223.173 248.962 224.027 249.469 224.48C249.975 224.907 250.869 225.12 252.149 225.12H254.309V228H251.189ZM267.386 228.48C265.519 228.48 263.839 228.053 262.346 227.2C260.853 226.32 259.679 225.093 258.826 223.52C257.973 221.92 257.546 220.067 257.546 217.96C257.546 215.8 257.973 213.933 258.826 212.36C259.706 210.76 260.893 209.533 262.386 208.68C263.906 207.8 265.599 207.36 267.466 207.36C269.386 207.36 271.079 207.8 272.546 208.68C274.039 209.533 275.213 210.76 276.066 212.36C276.946 213.933 277.386 215.787 277.386 217.92C277.386 220.053 276.946 221.92 276.066 223.52C275.186 225.093 273.999 226.32 272.506 227.2C271.013 228.053 269.306 228.48 267.386 228.48ZM267.426 225.6C268.573 225.6 269.639 225.32 270.626 224.76C271.613 224.173 272.413 223.307 273.026 222.16C273.639 221.013 273.946 219.6 273.946 217.92C273.946 216.213 273.639 214.8 273.026 213.68C272.439 212.533 271.653 211.68 270.666 211.12C269.706 210.533 268.639 210.24 267.466 210.24C266.346 210.24 265.279 210.533 264.266 211.12C263.279 211.68 262.479 212.533 261.866 213.68C261.279 214.8 260.986 216.213 260.986 217.92C260.986 219.6 261.279 221.013 261.866 222.16C262.479 223.307 263.266 224.173 264.226 224.76C265.213 225.32 266.279 225.6 267.426 225.6ZM31.2 288L41.52 260H45.08L55.36 288H51.8L43.28 264.2L34.72 288H31.2ZM35.92 280.8L36.88 278.08H49.56L50.52 280.8H35.92ZM59.3625 288V259.2H62.7225V288H59.3625ZM77.1088 288.48C75.2154 288.48 73.5354 288.04 72.0688 287.16C70.6288 286.28 69.4954 285.053 68.6688 283.48C67.8421 281.88 67.4288 280.027 67.4288 277.92C67.4288 275.787 67.8288 273.933 68.6288 272.36C69.4554 270.787 70.6021 269.56 72.0688 268.68C73.5621 267.8 75.2688 267.36 77.1888 267.36C79.1621 267.36 80.8288 267.8 82.1888 268.68C83.5754 269.56 84.6288 270.72 85.3488 272.16C86.0954 273.573 86.4688 275.133 86.4688 276.84C86.4688 277.107 86.4688 277.387 86.4688 277.68C86.4688 277.973 86.4554 278.307 86.4288 278.68H69.9488V276.08H83.1888C83.1088 274.24 82.4954 272.8 81.3488 271.76C80.2288 270.72 78.8154 270.2 77.1088 270.2C75.9621 270.2 74.8954 270.467 73.9088 271C72.9488 271.507 72.1754 272.267 71.5888 273.28C71.0021 274.267 70.7088 275.507 70.7088 277V278.12C70.7088 279.773 71.0021 281.16 71.5888 282.28C72.2021 283.4 72.9888 284.24 73.9488 284.8C74.9354 285.36 75.9888 285.64 77.1088 285.64C78.5221 285.64 79.6821 285.333 80.5888 284.72C81.5221 284.08 82.1888 283.227 82.5888 282.16H85.9088C85.5888 283.36 85.0288 284.44 84.2288 285.4C83.4288 286.36 82.4288 287.12 81.2288 287.68C80.0554 288.213 78.6821 288.48 77.1088 288.48ZM88.0656 288L94.9056 277.92L88.0656 267.84H91.7456L97.1856 276.08L102.706 267.84H106.306L99.4656 277.92L106.306 288H102.706L97.1856 279.72L91.7456 288H88.0656ZM111.109 288.2C110.443 288.2 109.883 287.987 109.429 287.56C109.003 287.107 108.789 286.56 108.789 285.92C108.789 285.28 109.003 284.747 109.429 284.32C109.883 283.867 110.443 283.64 111.109 283.64C111.776 283.64 112.323 283.867 112.749 284.32C113.176 284.747 113.389 285.28 113.389 285.92C113.389 286.56 113.176 287.107 112.749 287.56C112.323 287.987 111.776 288.2 111.109 288.2Z" fill="white"/>
<g filter="url(#filter1_f_64_7194)">
<circle cx="70" cy="372" r="40" fill="url(#paint1_angular_64_7194)" fill-opacity="0.4"/>
</g>
<g filter="url(#filter2_f_64_7194)">
<circle cx="70" cy="372" r="40" fill="url(#paint2_angular_64_7194)" fill-opacity="0.8"/>
</g>
<g filter="url(#filter3_iii_64_7194)">
<circle cx="70" cy="372" r="40" fill="#2A0931"/>
<circle cx="70" cy="372" r="40" fill="url(#paint3_radial_64_7194)" fill-opacity="0.9"/>
</g>
<mask id="mask0_64_7194" style="mask-type:alpha" maskUnits="userSpaceOnUse" x="30" y="332" width="80" height="80">
<path d="M110 372C110 394.091 92.0914 412 70 412C47.9086 412 30 394.091 30 372C30 349.909 47.9086 332 70 332C92.0914 332 110 349.909 110 372Z" fill="white"/>
</mask>
<g mask="url(#mask0_64_7194)">
<g style="mix-blend-mode:plus-lighter">
<path d="M41.011 363.78C37.3356 377.453 42.6047 394.399 57.8003 401.508C72.996 408.618 80.5309 404.03 87.3579 398.932C94.1849 393.835 108.231 375.905 95.5692 363.738C82.9074 351.571 72.1243 358.61 58.4586 356.962C53.1782 356.325 44.6864 350.106 41.011 363.78Z" fill="url(#paint4_linear_64_7194)" fill-opacity="0.8"/>
</g>
<path d="M79.8852 384.406C102.483 368.892 93.4893 347.531 75.4819 340.841C67.0834 337.72 68.3663 349.357 57.9306 359.657C47.4948 369.958 34.1296 386.361 48.0727 393.485C62.0159 400.61 70.3402 390.958 79.8852 384.406Z" fill="url(#paint5_radial_64_7194)"/>
<path d="M79.8852 384.406C102.483 368.892 93.4893 347.531 75.4819 340.841C67.0834 337.72 68.3663 349.357 57.9306 359.657C47.4948 369.958 34.1296 386.361 48.0727 393.485C62.0159 400.61 70.3402 390.958 79.8852 384.406Z" fill="url(#paint6_linear_64_7194)"/>
<path d="M79.8852 384.406C102.483 368.892 93.4893 347.531 75.4819 340.841C67.0834 337.72 68.3663 349.357 57.9306 359.657C47.4948 369.958 34.1296 386.361 48.0727 393.485C62.0159 400.61 70.3402 390.958 79.8852 384.406Z" fill="url(#paint7_radial_64_7194)" fill-opacity="0.2"/>
<path d="M45.5736 369.156C49.1999 357.6 49.3948 340.8 62.6239 340.8C73.0679 340.8 81.5999 345.2 86.9932 354.034C92.3865 362.869 102.8 364.673 102.8 371.2C102.8 383.041 81.9201 389.238 69.1999 388C56.4796 386.762 41.9473 380.713 45.5736 369.156Z" fill="url(#paint8_linear_64_7194)" fill-opacity="0.3" style="mix-blend-mode:plus-lighter"/>
<path d="M45.5736 369.156C49.1999 357.6 49.3948 340.8 62.6239 340.8C73.0679 340.8 81.5999 345.2 86.9932 354.034C92.3865 362.869 102.8 364.673 102.8 371.2C102.8 383.041 81.9201 389.238 69.1999 388C56.4796 386.762 41.9473 380.713 45.5736 369.156Z" fill="url(#paint9_radial_64_7194)"/>
<path d="M71.7909 394.127C74.6831 406.8 95.0831 402 86.2831 390.8C77.4831 379.6 77.8678 380.352 70.785 372C70.2513 380.117 68.8986 381.455 71.7909 394.127Z" fill="url(#paint10_radial_64_7194)"/>
<path d="M71.7909 394.127C74.6831 406.8 95.0831 402 86.2831 390.8C77.4831 379.6 77.8678 380.352 70.785 372C70.2513 380.117 68.8986 381.455 71.7909 394.127Z" fill="url(#paint11_linear_64_7194)"/>
<path d="M41.2006 366C31.6898 344.79 74.0006 327.2 67.1053 345.034C60.21 362.867 77.7126 391.817 90.1104 369.826C100.705 351.034 50.7114 387.209 41.2006 366Z" fill="url(#paint12_angular_64_7194)" style="mix-blend-mode:screen"/>
<g style="mix-blend-mode:plus-lighter" filter="url(#filter4_f_64_7194)">
<path d="M85.5974 372.156C93.9052 378.464 73.8686 377.494 70.9364 386.713C68.0042 395.931 45.0355 380.89 56.2755 372.156C67.5156 363.423 47.9677 368.275 70.9364 357.6C93.9052 346.926 77.2895 365.849 85.5974 372.156Z" fill="url(#paint13_radial_64_7194)" fill-opacity="0.6"/>
</g>
<path d="M69.4323 384.31C59.6003 383.2 56.0003 381.2 57.4323 372.31C58.8643 363.42 63.6643 365.42 69.4323 360.31C75.2003 355.2 78.5683 359.69 83.6003 369.2C88.6323 378.71 79.2643 385.42 69.4323 384.31Z" fill="url(#paint14_radial_64_7194)"/>
</g>
<path fill-rule="evenodd" clip-rule="evenodd" d="M145.794 356.826V387.174C145.794 387.63 146.163 388 146.619 388C147.074 388 147.443 387.63 147.443 387.174V356.826C147.443 356.37 147.074 356 146.619 356C146.163 356 145.794 356.37 145.794 356.826ZM193.299 356.826V387.174C193.299 387.63 193.668 388 194.124 388C194.579 388 194.948 387.63 194.948 387.174V356.826C194.948 356.37 194.579 356 194.124 356C193.668 356 193.299 356.37 193.299 356.826ZM169.546 356.826V387.174C169.546 387.63 169.916 388 170.371 388C170.826 388 171.196 387.63 171.196 387.174V356.826C171.196 356.37 170.826 356 170.371 356C169.916 356 169.546 356.37 169.546 356.826ZM201.216 360.619V383.381C201.216 383.836 201.586 384.206 202.041 384.206C202.496 384.206 202.866 383.836 202.866 383.381V360.619C202.866 360.164 202.496 359.794 202.041 359.794C201.586 359.794 201.216 360.164 201.216 360.619ZM137.876 360.619V383.381C137.876 383.836 138.246 384.206 138.701 384.206C139.156 384.206 139.526 383.836 139.526 383.381V360.619C139.526 360.164 139.156 359.794 138.701 359.794C138.246 359.794 137.876 360.164 137.876 360.619ZM177.464 360.619V383.381C177.464 383.836 177.833 384.206 178.289 384.206C178.744 384.206 179.113 383.836 179.113 383.381V360.619C179.113 360.164 178.744 359.794 178.289 359.794C177.833 359.794 177.464 360.164 177.464 360.619ZM161.629 360.619V383.381C161.629 383.836 161.998 384.206 162.454 384.206C162.909 384.206 163.278 383.836 163.278 383.381V360.619C163.278 360.164 162.909 359.794 162.454 359.794C161.998 359.794 161.629 360.164 161.629 360.619ZM153.711 360.619V383.381C153.711 383.836 154.081 384.206 154.536 384.206C154.991 384.206 155.361 383.836 155.361 383.381V360.619C155.361 360.164 154.991 359.794 154.536 359.794C154.081 359.794 153.711 360.164 153.711 360.619ZM185.381 360.619V383.381C185.381 383.836 185.751 384.206 186.206 384.206C186.661 384.206 187.031 383.836 187.031 383.381V360.619C187.031 360.164 186.661 359.794 186.206 359.794C185.751 359.794 185.381 360.164 185.381 360.619ZM141.835 363.285V380.715C141.835 381.171 142.205 381.541 142.66 381.541C143.115 381.541 143.485 381.171 143.485 380.715V363.285C143.485 362.829 143.115 362.459 142.66 362.459C142.205 362.459 141.835 362.829 141.835 363.285ZM149.753 363.285V380.715C149.753 381.171 150.122 381.541 150.577 381.541C151.033 381.541 151.402 381.171 151.402 380.715V363.285C151.402 362.829 151.033 362.459 150.577 362.459C150.122 362.459 149.753 362.829 149.753 363.285ZM173.505 363.285V380.715C173.505 381.171 173.875 381.541 174.33 381.541C174.785 381.541 175.155 381.171 175.155 380.715V363.285C175.155 362.829 174.785 362.459 174.33 362.459C173.875 362.459 173.505 362.829 173.505 363.285ZM189.34 363.285V380.715C189.34 381.171 189.71 381.541 190.165 381.541C190.62 381.541 190.99 381.171 190.99 380.715V363.285C190.99 362.829 190.62 362.459 190.165 362.459C189.71 362.459 189.34 362.829 189.34 363.285ZM165.588 363.285V380.715C165.588 381.171 165.957 381.541 166.412 381.541C166.868 381.541 167.237 381.171 167.237 380.715V363.285C167.237 362.829 166.868 362.459 166.412 362.459C165.957 362.459 165.588 362.829 165.588 363.285ZM197.258 363.285V380.715C197.258 381.171 197.627 381.541 198.082 381.541C198.538 381.541 198.907 381.171 198.907 380.715V363.285C198.907 362.829 198.538 362.459 198.082 362.459C197.627 362.459 197.258 362.829 197.258 363.285ZM129.959 363.9V380.1C129.959 380.555 130.328 380.925 130.784 380.925C131.239 380.925 131.608 380.555 131.608 380.1V363.9C131.608 363.445 131.239 363.075 130.784 363.075C130.328 363.075 129.959 363.445 129.959 363.9ZM126 368.206V375.794C126 376.249 126.369 376.619 126.825 376.619C127.28 376.619 127.649 376.249 127.649 375.794V368.206C127.649 367.751 127.28 367.381 126.825 367.381C126.369 367.381 126 367.751 126 368.206ZM157.67 368.206V375.794C157.67 376.249 158.04 376.619 158.495 376.619C158.95 376.619 159.32 376.249 159.32 375.794V368.206C159.32 367.751 158.95 367.381 158.495 367.381C158.04 367.381 157.67 367.751 157.67 368.206ZM133.918 368.206V375.794C133.918 376.249 134.287 376.619 134.742 376.619C135.198 376.619 135.567 376.249 135.567 375.794V368.206C135.567 367.751 135.198 367.381 134.742 367.381C134.287 367.381 133.918 367.751 133.918 368.206ZM205.175 368.206V375.794C205.175 376.249 205.545 376.619 206 376.619C206.455 376.619 206.825 376.249 206.825 375.794V368.206C206.825 367.751 206.455 367.381 206 367.381C205.545 367.381 205.175 367.751 205.175 368.206ZM181.423 368.206V375.794C181.423 376.249 181.792 376.619 182.247 376.619C182.703 376.619 183.072 376.249 183.072 375.794V368.206C183.072 367.751 182.703 367.381 182.247 367.381C181.792 367.381 181.423 367.751 181.423 368.206Z" fill="url(#paint15_linear_64_7194)"/>
<path fill-rule="evenodd" clip-rule="evenodd" d="M228.619 356.826V387.174C228.619 387.63 228.988 388 229.443 388C229.899 388 230.268 387.63 230.268 387.174V356.826C230.268 356.37 229.899 356 229.443 356C228.988 356 228.619 356.37 228.619 356.826ZM276.124 356.826V387.174C276.124 387.63 276.493 388 276.948 388C277.404 388 277.773 387.63 277.773 387.174V356.826C277.773 356.37 277.404 356 276.948 356C276.493 356 276.124 356.37 276.124 356.826ZM252.371 356.826V387.174C252.371 387.63 252.741 388 253.196 388C253.651 388 254.021 387.63 254.021 387.174V356.826C254.021 356.37 253.651 356 253.196 356C252.741 356 252.371 356.37 252.371 356.826ZM284.041 360.619V383.381C284.041 383.836 284.411 384.206 284.866 384.206C285.321 384.206 285.691 383.836 285.691 383.381V360.619C285.691 360.164 285.321 359.794 284.866 359.794C284.411 359.794 284.041 360.164 284.041 360.619ZM220.701 360.619V383.381C220.701 383.836 221.07 384.206 221.526 384.206C221.981 384.206 222.35 383.836 222.35 383.381V360.619C222.35 360.164 221.981 359.794 221.526 359.794C221.07 359.794 220.701 360.164 220.701 360.619ZM260.289 360.619V383.381C260.289 383.836 260.658 384.206 261.113 384.206C261.569 384.206 261.938 383.836 261.938 383.381V360.619C261.938 360.164 261.569 359.794 261.113 359.794C260.658 359.794 260.289 360.164 260.289 360.619ZM244.454 360.619V383.381C244.454 383.836 244.823 384.206 245.278 384.206C245.734 384.206 246.103 383.836 246.103 383.381V360.619C246.103 360.164 245.734 359.794 245.278 359.794C244.823 359.794 244.454 360.164 244.454 360.619ZM236.536 360.619V383.381C236.536 383.836 236.906 384.206 237.361 384.206C237.816 384.206 238.186 383.836 238.186 383.381V360.619C238.186 360.164 237.816 359.794 237.361 359.794C236.906 359.794 236.536 360.164 236.536 360.619ZM268.206 360.619V383.381C268.206 383.836 268.576 384.206 269.031 384.206C269.486 384.206 269.856 383.836 269.856 383.381V360.619C269.856 360.164 269.486 359.794 269.031 359.794C268.576 359.794 268.206 360.164 268.206 360.619ZM224.66 363.285V380.715C224.66 381.171 225.029 381.541 225.485 381.541C225.94 381.541 226.309 381.171 226.309 380.715V363.285C226.309 362.829 225.94 362.459 225.485 362.459C225.029 362.459 224.66 362.829 224.66 363.285ZM232.577 363.285V380.715C232.577 381.171 232.947 381.541 233.402 381.541C233.857 381.541 234.227 381.171 234.227 380.715V363.285C234.227 362.829 233.857 362.459 233.402 362.459C232.947 362.459 232.577 362.829 232.577 363.285ZM256.33 363.285V380.715C256.33 381.171 256.699 381.541 257.155 381.541C257.61 381.541 257.979 381.171 257.979 380.715V363.285C257.979 362.829 257.61 362.459 257.155 362.459C256.699 362.459 256.33 362.829 256.33 363.285ZM272.165 363.285V380.715C272.165 381.171 272.534 381.541 272.99 381.541C273.445 381.541 273.814 381.171 273.814 380.715V363.285C273.814 362.829 273.445 362.459 272.99 362.459C272.534 362.459 272.165 362.829 272.165 363.285ZM248.412 363.285V380.715C248.412 381.171 248.782 381.541 249.237 381.541C249.692 381.541 250.062 381.171 250.062 380.715V363.285C250.062 362.829 249.692 362.459 249.237 362.459C248.782 362.459 248.412 362.829 248.412 363.285ZM280.082 363.285V380.715C280.082 381.171 280.452 381.541 280.907 381.541C281.362 381.541 281.732 381.171 281.732 380.715V363.285C281.732 362.829 281.362 362.459 280.907 362.459C280.452 362.459 280.082 362.829 280.082 363.285ZM212.783 363.9V380.1C212.783 380.555 213.153 380.925 213.608 380.925C214.063 380.925 214.433 380.555 214.433 380.1V363.9C214.433 363.445 214.063 363.075 213.608 363.075C213.153 363.075 212.783 363.445 212.783 363.9ZM208.825 368.206V375.794C208.825 376.249 209.194 376.619 209.649 376.619C210.105 376.619 210.474 376.249 210.474 375.794V368.206C210.474 367.751 210.105 367.381 209.649 367.381C209.194 367.381 208.825 367.751 208.825 368.206ZM240.495 368.206V375.794C240.495 376.249 240.864 376.619 241.32 376.619C241.775 376.619 242.144 376.249 242.144 375.794V368.206C242.144 367.751 241.775 367.381 241.32 367.381C240.864 367.381 240.495 367.751 240.495 368.206ZM216.742 368.206V375.794C216.742 376.249 217.112 376.619 217.567 376.619C218.022 376.619 218.392 376.249 218.392 375.794V368.206C218.392 367.751 218.022 367.381 217.567 367.381C217.112 367.381 216.742 367.751 216.742 368.206ZM288 368.206V375.794C288 376.249 288.369 376.619 288.825 376.619C289.28 376.619 289.649 376.249 289.649 375.794V368.206C289.649 367.751 289.28 367.381 288.825 367.381C288.369 367.381 288 367.751 288 368.206ZM264.247 368.206V375.794C264.247 376.249 264.617 376.619 265.072 376.619C265.527 376.619 265.897 376.249 265.897 375.794V368.206C265.897 367.751 265.527 367.381 265.072 367.381C264.617 367.381 264.247 367.751 264.247 368.206Z" fill="url(#paint16_linear_64_7194)"/>
<path fill-rule="evenodd" clip-rule="evenodd" d="M311.443 356.826V387.174C311.443 387.63 311.813 388 312.268 388C312.723 388 313.093 387.63 313.093 387.174V356.826C313.093 356.37 312.723 356 312.268 356C311.813 356 311.443 356.37 311.443 356.826ZM358.948 356.826V387.174C358.948 387.63 359.318 388 359.773 388C360.228 388 360.598 387.63 360.598 387.174V356.826C360.598 356.37 360.228 356 359.773 356C359.318 356 358.948 356.37 358.948 356.826ZM335.196 356.826V387.174C335.196 387.63 335.565 388 336.021 388C336.476 388 336.845 387.63 336.845 387.174V356.826C336.845 356.37 336.476 356 336.021 356C335.565 356 335.196 356.37 335.196 356.826ZM366.866 360.619V383.381C366.866 383.836 367.235 384.206 367.691 384.206C368.146 384.206 368.515 383.836 368.515 383.381V360.619C368.515 360.164 368.146 359.794 367.691 359.794C367.235 359.794 366.866 360.164 366.866 360.619ZM303.526 360.619V383.381C303.526 383.836 303.895 384.206 304.35 384.206C304.806 384.206 305.175 383.836 305.175 383.381V360.619C305.175 360.164 304.806 359.794 304.35 359.794C303.895 359.794 303.526 360.164 303.526 360.619ZM343.113 360.619V383.381C343.113 383.836 343.483 384.206 343.938 384.206C344.393 384.206 344.763 383.836 344.763 383.381V360.619C344.763 360.164 344.393 359.794 343.938 359.794C343.483 359.794 343.113 360.164 343.113 360.619ZM327.278 360.619V383.381C327.278 383.836 327.648 384.206 328.103 384.206C328.558 384.206 328.928 383.836 328.928 383.381V360.619C328.928 360.164 328.558 359.794 328.103 359.794C327.648 359.794 327.278 360.164 327.278 360.619ZM319.361 360.619V383.381C319.361 383.836 319.73 384.206 320.185 384.206C320.641 384.206 321.01 383.836 321.01 383.381V360.619C321.01 360.164 320.641 359.794 320.185 359.794C319.73 359.794 319.361 360.164 319.361 360.619ZM351.031 360.619V383.381C351.031 383.836 351.4 384.206 351.856 384.206C352.311 384.206 352.68 383.836 352.68 383.381V360.619C352.68 360.164 352.311 359.794 351.856 359.794C351.4 359.794 351.031 360.164 351.031 360.619ZM307.484 363.285V380.715C307.484 381.171 307.854 381.541 308.309 381.541C308.764 381.541 309.134 381.171 309.134 380.715V363.285C309.134 362.829 308.764 362.459 308.309 362.459C307.854 362.459 307.484 362.829 307.484 363.285ZM315.402 363.285V380.715C315.402 381.171 315.771 381.541 316.227 381.541C316.682 381.541 317.051 381.171 317.051 380.715V363.285C317.051 362.829 316.682 362.459 316.227 362.459C315.771 362.459 315.402 362.829 315.402 363.285ZM339.155 363.285V380.715C339.155 381.171 339.524 381.541 339.979 381.541C340.435 381.541 340.804 381.171 340.804 380.715V363.285C340.804 362.829 340.435 362.459 339.979 362.459C339.524 362.459 339.155 362.829 339.155 363.285ZM354.99 363.285V380.715C354.99 381.171 355.359 381.541 355.814 381.541C356.27 381.541 356.639 381.171 356.639 380.715V363.285C356.639 362.829 356.27 362.459 355.814 362.459C355.359 362.459 354.99 362.829 354.99 363.285ZM331.237 363.285V380.715C331.237 381.171 331.607 381.541 332.062 381.541C332.517 381.541 332.887 381.171 332.887 380.715V363.285C332.887 362.829 332.517 362.459 332.062 362.459C331.607 362.459 331.237 362.829 331.237 363.285ZM362.907 363.285V380.715C362.907 381.171 363.277 381.541 363.732 381.541C364.187 381.541 364.557 381.171 364.557 380.715V363.285C364.557 362.829 364.187 362.459 363.732 362.459C363.277 362.459 362.907 362.829 362.907 363.285ZM295.608 363.9V380.1C295.608 380.555 295.978 380.925 296.433 380.925C296.888 380.925 297.258 380.555 297.258 380.1V363.9C297.258 363.445 296.888 363.075 296.433 363.075C295.978 363.075 295.608 363.445 295.608 363.9ZM291.649 368.206V375.794C291.649 376.249 292.019 376.619 292.474 376.619C292.929 376.619 293.299 376.249 293.299 375.794V368.206C293.299 367.751 292.929 367.381 292.474 367.381C292.019 367.381 291.649 367.751 291.649 368.206ZM323.32 368.206V375.794C323.32 376.249 323.689 376.619 324.144 376.619C324.6 376.619 324.969 376.249 324.969 375.794V368.206C324.969 367.751 324.6 367.381 324.144 367.381C323.689 367.381 323.32 367.751 323.32 368.206ZM299.567 368.206V375.794C299.567 376.249 299.936 376.619 300.392 376.619C300.847 376.619 301.216 376.249 301.216 375.794V368.206C301.216 367.751 300.847 367.381 300.392 367.381C299.936 367.381 299.567 367.751 299.567 368.206ZM370.825 368.206V375.794C370.825 376.249 371.194 376.619 371.649 376.619C372.105 376.619 372.474 376.249 372.474 375.794V368.206C372.474 367.751 372.105 367.381 371.649 367.381C371.194 367.381 370.825 367.751 370.825 368.206ZM347.072 368.206V375.794C347.072 376.249 347.442 376.619 347.897 376.619C348.352 376.619 348.722 376.249 348.722 375.794V368.206C348.722 367.751 348.352 367.381 347.897 367.381C347.442 367.381 347.072 367.751 347.072 368.206Z" fill="url(#paint17_linear_64_7194)"/>
</g>
<rect x="6.66667" y="0.666667" width="334.667" height="434.667" rx="23.3333" stroke="url(#paint18_linear_64_7194)" stroke-opacity="0.5" stroke-width="1.33333" shape-rendering="crispEdges"/>
</g>
<defs>
<filter id="filter0_bd_64_7194" x="-24" y="-30" width="396" height="496" filterUnits="userSpaceOnUse" color-interpolation-filters="sRGB">
<feFlood flood-opacity="0" result="BackgroundImageFix"/>
<feGaussianBlur in="BackgroundImageFix" stdDeviation="15"/>
<feComposite in2="SourceAlpha" operator="in" result="effect1_backgroundBlur_64_7194"/>
<feColorMatrix in="SourceAlpha" type="matrix" values="0 0 0 0 0 0 0 0 0 0 0 0 0 0 0 0 0 0 127 0" result="hardAlpha"/>
<feOffset dy="5.33333"/>
<feGaussianBlur stdDeviation="2.66667"/>
<feComposite in2="hardAlpha" operator="out"/>
<feColorMatrix type="matrix" values="0 0 0 0 0 0 0 0 0 0 0 0 0 0 0 0 0 0 0.25 0"/>
<feBlend mode="normal" in2="effect1_backgroundBlur_64_7194" result="effect2_dropShadow_64_7194"/>
<feBlend mode="normal" in="SourceGraphic" in2="effect2_dropShadow_64_7194" result="shape"/>
</filter>
<filter id="filter1_f_64_7194" x="22" y="324" width="96" height="96" filterUnits="userSpaceOnUse" color-interpolation-filters="sRGB">
<feFlood flood-opacity="0" result="BackgroundImageFix"/>
<feBlend mode="normal" in="SourceGraphic" in2="BackgroundImageFix" result="shape"/>
<feGaussianBlur stdDeviation="4" result="effect1_foregroundBlur_64_7194"/>
</filter>
<filter id="filter2_f_64_7194" x="28" y="330" width="84" height="84" filterUnits="userSpaceOnUse" color-interpolation-filters="sRGB">
<feFlood flood-opacity="0" result="BackgroundImageFix"/>
<feBlend mode="normal" in="SourceGraphic" in2="BackgroundImageFix" result="shape"/>
<feGaussianBlur stdDeviation="1" result="effect1_foregroundBlur_64_7194"/>
</filter>
<filter id="filter3_iii_64_7194" x="30" y="332" width="80" height="80" filterUnits="userSpaceOnUse" color-interpolation-filters="sRGB">
<feFlood flood-opacity="0" result="BackgroundImageFix"/>
<feBlend mode="normal" in="SourceGraphic" in2="BackgroundImageFix" result="shape"/>
<feColorMatrix in="SourceAlpha" type="matrix" values="0 0 0 0 0 0 0 0 0 0 0 0 0 0 0 0 0 0 127 0" result="hardAlpha"/>
<feOffset/>
<feGaussianBlur stdDeviation="8"/>
<feComposite in2="hardAlpha" operator="arithmetic" k2="-1" k3="1"/>
<feColorMatrix type="matrix" values="0 0 0 0 0.8625 0 0 0 0 0.251563 0 0 0 0 0.618125 0 0 0 0.6 0"/>
<feBlend mode="normal" in2="shape" result="effect1_innerShadow_64_7194"/>
<feColorMatrix in="SourceAlpha" type="matrix" values="0 0 0 0 0 0 0 0 0 0 0 0 0 0 0 0 0 0 127 0" result="hardAlpha"/>
<feOffset/>
<feGaussianBlur stdDeviation="6"/>
<feComposite in2="hardAlpha" operator="arithmetic" k2="-1" k3="1"/>
<feColorMatrix type="matrix" values="0 0 0 0 0.945833 0 0 0 0 0.185226 0 0 0 0 0.230862 0 0 0 0.5 0"/>
<feBlend mode="normal" in2="effect1_innerShadow_64_7194" result="effect2_innerShadow_64_7194"/>
<feColorMatrix in="SourceAlpha" type="matrix" values="0 0 0 0 0 0 0 0 0 0 0 0 0 0 0 0 0 0 127 0" result="hardAlpha"/>
<feOffset/>
<feGaussianBlur stdDeviation="2.4"/>
<feComposite in2="hardAlpha" operator="arithmetic" k2="-1" k3="1"/>
<feColorMatrix type="matrix" values="0 0 0 0 1 0 0 0 0 0.7375 0 0 0 0 0.94225 0 0 0 0.6 0"/>
<feBlend mode="normal" in2="effect2_innerShadow_64_7194" result="effect3_innerShadow_64_7194"/>
</filter>
<filter id="filter4_f_64_7194" x="51.6002" y="352.8" width="37.5999" height="38.4" filterUnits="userSpaceOnUse" color-interpolation-filters="sRGB">
<feFlood flood-opacity="0" result="BackgroundImageFix"/>
<feBlend mode="normal" in="SourceGraphic" in2="BackgroundImageFix" result="shape"/>
<feGaussianBlur stdDeviation="0.8" result="effect1_foregroundBlur_64_7194"/>
</filter>
<linearGradient id="paint0_linear_64_7194" x1="5.99999" y1="30.1847" x2="387.626" y2="78.9507" gradientUnits="userSpaceOnUse">
<stop stop-color="white" stop-opacity="0.4"/>
<stop offset="1" stop-color="#999999" stop-opacity="0.2"/>
</linearGradient>
<radialGradient id="paint1_angular_64_7194" cx="0" cy="0" r="1" gradientUnits="userSpaceOnUse" gradientTransform="translate(70 372) rotate(90) scale(40)">
<stop stop-color="#A829C4"/>
<stop offset="0.313665" stop-color="#3B0D3C"/>
</radialGradient>
<radialGradient id="paint2_angular_64_7194" cx="0" cy="0" r="1" gradientUnits="userSpaceOnUse" gradientTransform="translate(70 372) rotate(90) scale(40)">
<stop stop-color="#34093D"/>
<stop offset="0.313665" stop-color="#421343"/>
</radialGradient>
<radialGradient id="paint3_radial_64_7194" cx="0" cy="0" r="1" gradientUnits="userSpaceOnUse" gradientTransform="translate(53.2 337.2) rotate(63.4457) scale(38.9039 46.1504)">
<stop stop-color="#DA72FF" stop-opacity="0.63"/>
<stop offset="1" stop-color="#344B9D" stop-opacity="0"/>
</radialGradient>
<linearGradient id="paint4_linear_64_7194" x1="47.0768" y1="392.063" x2="63.0287" y2="365.926" gradientUnits="userSpaceOnUse">
<stop stop-color="#9777C0" stop-opacity="0.53"/>
<stop offset="1" stop-color="#E95BEC" stop-opacity="0"/>
</linearGradient>
<radialGradient id="paint5_radial_64_7194" cx="0" cy="0" r="1" gradientUnits="userSpaceOnUse" gradientTransform="translate(45.7199 368.951) rotate(32.5356) scale(33.9344 34.6986)">
<stop stop-color="#C1506B"/>
<stop offset="1" stop-color="#F7BADE" stop-opacity="0"/>
</radialGradient>
<linearGradient id="paint6_linear_64_7194" x1="53.2371" y1="351.634" x2="59.9289" y2="360.104" gradientUnits="userSpaceOnUse">
<stop stop-color="#C150A2"/>
<stop offset="1" stop-color="#E0ADBC" stop-opacity="0"/>
</linearGradient>
<radialGradient id="paint7_radial_64_7194" cx="0" cy="0" r="1" gradientUnits="userSpaceOnUse" gradientTransform="translate(72.6884 372.426) rotate(109.542) scale(20.2177 18.2389)">
<stop stop-color="#FF2E00"/>
<stop offset="1" stop-color="#FFD6CD" stop-opacity="0"/>
</radialGradient>
<linearGradient id="paint8_linear_64_7194" x1="93.3407" y1="378.331" x2="101.246" y2="363.208" gradientUnits="userSpaceOnUse">
<stop stop-color="#D426FB" stop-opacity="0"/>
<stop offset="0.665732" stop-color="#D426FB"/>
<stop offset="0.911525" stop-color="#EC95FF"/>
</linearGradient>
<radialGradient id="paint9_radial_64_7194" cx="0" cy="0" r="1" gradientUnits="userSpaceOnUse" gradientTransform="translate(47.5999 370.8) rotate(30.6997) scale(14.8862 18.1666)">
<stop stop-color="#8F4791"/>
<stop offset="1" stop-color="#8F4791" stop-opacity="0"/>
</radialGradient>
<radialGradient id="paint10_radial_64_7194" cx="0" cy="0" r="1" gradientUnits="userSpaceOnUse" gradientTransform="translate(81.6 401.6) rotate(-102.011) scale(19.2208 24.6158)">
<stop stop-color="#E375DF" stop-opacity="0"/>
<stop offset="1" stop-color="#FF91B2"/>
</radialGradient>
<linearGradient id="paint11_linear_64_7194" x1="71.8252" y1="375.52" x2="73.0297" y2="383.683" gradientUnits="userSpaceOnUse">
<stop stop-color="white"/>
<stop offset="1" stop-color="white" stop-opacity="0"/>
</linearGradient>
<radialGradient id="paint12_angular_64_7194" cx="0" cy="0" r="1" gradientUnits="userSpaceOnUse" gradientTransform="translate(70.4006 374.8) rotate(-65.0114) scale(44.7636 47.079)">
<stop offset="0.0076933" stop-color="#FFADAD"/>
<stop offset="0.258126" stop-color="#FF3205" stop-opacity="0"/>
<stop offset="0.570188" stop-color="#FFF1E0" stop-opacity="0"/>
<stop offset="0.762235" stop-color="#7A0E4F" stop-opacity="0"/>
</radialGradient>
<radialGradient id="paint13_radial_64_7194" cx="0" cy="0" r="1" gradientUnits="userSpaceOnUse" gradientTransform="translate(70.9365 372.156) rotate(90) scale(14.5561 14.6609)">
<stop stop-color="white"/>
<stop offset="0.165839" stop-color="white"/>
<stop offset="0.335281" stop-color="#FFD18B"/>
<stop offset="1" stop-color="#FF144D" stop-opacity="0"/>
</radialGradient>
<radialGradient id="paint14_radial_64_7194" cx="0" cy="0" r="1" gradientUnits="userSpaceOnUse" gradientTransform="translate(69.4323 372.31) rotate(-180) scale(12 12)">
<stop stop-color="white"/>
<stop offset="0.165839" stop-color="white"/>
<stop offset="0.335281" stop-color="#FFD18B"/>
<stop offset="1" stop-color="#FF144D" stop-opacity="0"/>
</radialGradient>
<linearGradient id="paint15_linear_64_7194" x1="148.732" y1="358" x2="151.63" y2="389.366" gradientUnits="userSpaceOnUse">
<stop stop-color="#D426FB"/>
<stop offset="1" stop-color="#12ECAA"/>
</linearGradient>
<linearGradient id="paint16_linear_64_7194" x1="231.557" y1="358" x2="234.454" y2="389.366" gradientUnits="userSpaceOnUse">
<stop stop-color="#D426FB"/>
<stop offset="1" stop-color="#12ECAA"/>
</linearGradient>
<linearGradient id="paint17_linear_64_7194" x1="314.381" y1="358" x2="317.279" y2="389.366" gradientUnits="userSpaceOnUse">
<stop stop-color="#D426FB"/>
<stop offset="1" stop-color="#12ECAA"/>
</linearGradient>
<linearGradient id="paint18_linear_64_7194" x1="100.5" y1="27.25" x2="220.04" y2="422.06" gradientUnits="userSpaceOnUse">
<stop stop-color="#D426FB"/>
<stop offset="1" stop-color="#12ECAA"/>
</linearGradient>
<clipPath id="clip0_64_7194">
<rect x="6" width="336" height="436" rx="24" fill="white"/>
</clipPath>
</defs>
</svg>
