<svg width="307" height="357" viewBox="0 0 307 357" fill="none" xmlns="http://www.w3.org/2000/svg">
<g filter="url(#filter0_bd_64_7215)">
<rect x="24" y="15" width="267" height="316" rx="24" fill="url(#paint0_linear_64_7215)" fill-opacity="0.4" shape-rendering="crispEdges"/>
<rect x="24.6667" y="15.6667" width="265.667" height="314.667" rx="23.3333" stroke="url(#paint1_linear_64_7215)" stroke-opacity="0.5" stroke-width="1.33333" shape-rendering="crispEdges"/>
<path fill-rule="evenodd" clip-rule="evenodd" d="M55.0156 51.5482C55.6175 51.4027 56.2328 51.3295 56.85 51.3298C61.7375 51.3298 65.6984 55.8565 65.6984 61.4382C65.6984 67.0215 61.7375 71.5482 56.85 71.5482C51.9625 71.5482 48 67.0232 48 61.4382C48 61.2748 48.0031 61.1098 48.0109 60.9465H48C48 52.5215 54 45.6665 61.375 45.6665V49.0598C58.9828 49.0598 56.7766 49.9898 55.0156 51.5482ZM74.8187 51.5482C75.4094 51.4048 76.0219 51.3298 76.65 51.3298C81.5375 51.3298 85.5 55.8565 85.5 61.4382C85.5 67.0215 81.5375 71.5482 76.65 71.5482C71.7625 71.5482 67.8016 67.0232 67.8016 61.4382C67.8016 61.2748 67.8047 61.1098 67.8125 60.9465H67.8016C67.8016 52.5215 73.8016 45.6665 81.1766 45.6665V49.0598C78.7828 49.0598 76.5797 49.9898 74.8187 51.5482Z" fill="#FFBD59"/>
<path d="M53.952 116.96L56.864 109.6H58.784L56.96 116.96H53.952ZM48.96 116.96L51.84 109.6H53.76L51.968 116.96H48.96ZM76.454 132V109.6H79.142V132H76.454ZM62.15 132V109.6H64.838V132H62.15ZM64.326 121.696V119.488H77.126V121.696H64.326ZM90.8433 132.384C89.3286 132.384 87.9846 132.032 86.8113 131.328C85.6593 130.624 84.7526 129.643 84.0913 128.384C83.4299 127.104 83.0993 125.621 83.0993 123.936C83.0993 122.229 83.4193 120.747 84.0593 119.488C84.7206 118.229 85.6379 117.248 86.8113 116.544C88.0059 115.84 89.3713 115.488 90.9073 115.488C92.4859 115.488 93.8193 115.84 94.9073 116.544C96.0166 117.248 96.8593 118.176 97.4353 119.328C98.0326 120.459 98.3313 121.707 98.3313 123.072C98.3313 123.285 98.3313 123.509 98.3313 123.744C98.3313 123.979 98.3206 124.245 98.2993 124.544H85.1153V122.464H95.7073C95.6433 120.992 95.1526 119.84 94.2353 119.008C93.3393 118.176 92.2086 117.76 90.8433 117.76C89.9259 117.76 89.0726 117.973 88.2833 118.4C87.5153 118.805 86.8966 119.413 86.4273 120.224C85.9579 121.013 85.7233 122.005 85.7233 123.2V124.096C85.7233 125.419 85.9579 126.528 86.4273 127.424C86.9179 128.32 87.5473 128.992 88.3153 129.44C89.1046 129.888 89.9473 130.112 90.8433 130.112C91.9739 130.112 92.9019 129.867 93.6273 129.376C94.3739 128.864 94.9073 128.181 95.2273 127.328H97.8833C97.6273 128.288 97.1793 129.152 96.5393 129.92C95.8993 130.688 95.0993 131.296 94.1393 131.744C93.2006 132.171 92.1019 132.384 90.8433 132.384ZM103.094 139.04L107.03 130.208H106.102L99.7658 115.872H102.678L107.926 128.192L113.43 115.872H116.214L105.91 139.04H103.094ZM134.911 132.384C133.268 132.384 131.839 132.085 130.623 131.488C129.407 130.891 128.468 130.059 127.807 128.992C127.146 127.925 126.815 126.688 126.815 125.28H129.631C129.631 126.155 129.834 126.965 130.239 127.712C130.644 128.437 131.231 129.024 131.999 129.472C132.788 129.899 133.759 130.112 134.911 130.112C135.914 130.112 136.767 129.952 137.471 129.632C138.196 129.291 138.74 128.832 139.103 128.256C139.487 127.68 139.679 127.029 139.679 126.304C139.679 125.429 139.487 124.725 139.103 124.192C138.74 123.637 138.239 123.189 137.599 122.848C136.959 122.507 136.212 122.208 135.359 121.952C134.527 121.675 133.652 121.387 132.735 121.088C130.964 120.491 129.663 119.744 128.831 118.848C127.999 117.952 127.583 116.789 127.583 115.36C127.583 114.144 127.86 113.077 128.415 112.16C128.991 111.243 129.802 110.528 130.847 110.016C131.914 109.483 133.172 109.216 134.623 109.216C136.052 109.216 137.29 109.483 138.335 110.016C139.402 110.549 140.234 111.285 140.831 112.224C141.428 113.141 141.727 114.208 141.727 115.424H138.911C138.911 114.805 138.751 114.197 138.431 113.6C138.111 113.003 137.62 112.512 136.959 112.128C136.319 111.723 135.508 111.52 134.527 111.52C133.716 111.499 132.991 111.637 132.351 111.936C131.732 112.213 131.242 112.619 130.879 113.152C130.538 113.685 130.367 114.336 130.367 115.104C130.367 115.829 130.516 116.416 130.815 116.864C131.135 117.312 131.583 117.696 132.159 118.016C132.756 118.315 133.45 118.592 134.239 118.848C135.028 119.104 135.903 119.392 136.863 119.712C137.951 120.075 138.911 120.523 139.743 121.056C140.596 121.568 141.258 122.229 141.727 123.04C142.218 123.851 142.463 124.885 142.463 126.144C142.463 127.211 142.175 128.224 141.599 129.184C141.044 130.123 140.212 130.891 139.103 131.488C137.994 132.085 136.596 132.384 134.911 132.384ZM153.378 132.384C151.884 132.384 150.54 132.043 149.346 131.36C148.151 130.656 147.212 129.675 146.53 128.416C145.847 127.136 145.506 125.653 145.506 123.968C145.506 122.24 145.847 120.747 146.53 119.488C147.234 118.208 148.183 117.227 149.378 116.544C150.594 115.84 151.948 115.488 153.442 115.488C154.978 115.488 156.332 115.84 157.506 116.544C158.7 117.227 159.639 118.208 160.322 119.488C161.026 120.747 161.378 122.229 161.378 123.936C161.378 125.643 161.026 127.136 160.322 128.416C159.618 129.675 158.668 130.656 157.474 131.36C156.279 132.043 154.914 132.384 153.378 132.384ZM153.41 130.08C154.327 130.08 155.18 129.856 155.97 129.408C156.759 128.939 157.399 128.245 157.89 127.328C158.38 126.411 158.626 125.28 158.626 123.936C158.626 122.571 158.38 121.44 157.89 120.544C157.42 119.627 156.791 118.944 156.002 118.496C155.234 118.027 154.38 117.792 153.442 117.792C152.546 117.792 151.692 118.027 150.882 118.496C150.092 118.944 149.452 119.627 148.962 120.544C148.492 121.44 148.258 122.571 148.258 123.936C148.258 125.28 148.492 126.411 148.962 127.328C149.452 128.245 150.082 128.939 150.85 129.408C151.639 129.856 152.492 130.08 153.41 130.08ZM165.146 132V108.96H167.834V132H165.146ZM177.519 132.384C176.218 132.384 175.13 132.16 174.255 131.712C173.381 131.243 172.73 130.635 172.303 129.888C171.877 129.12 171.663 128.288 171.663 127.392C171.663 126.304 171.941 125.387 172.495 124.64C173.071 123.872 173.871 123.296 174.895 122.912C175.941 122.507 177.167 122.304 178.575 122.304H182.831C182.831 121.301 182.671 120.469 182.351 119.808C182.053 119.125 181.605 118.613 181.007 118.272C180.431 117.931 179.706 117.76 178.831 117.76C177.807 117.76 176.922 118.016 176.175 118.528C175.429 119.04 174.97 119.797 174.799 120.8H172.047C172.175 119.648 172.559 118.688 173.199 117.92C173.861 117.131 174.693 116.533 175.695 116.128C176.698 115.701 177.743 115.488 178.831 115.488C180.325 115.488 181.562 115.765 182.543 116.32C183.546 116.853 184.293 117.611 184.783 118.592C185.274 119.552 185.519 120.693 185.519 122.016V132H183.119L182.959 129.152C182.746 129.6 182.469 130.027 182.127 130.432C181.807 130.816 181.423 131.157 180.975 131.456C180.527 131.733 180.015 131.957 179.439 132.128C178.885 132.299 178.245 132.384 177.519 132.384ZM177.935 130.112C178.682 130.112 179.354 129.963 179.951 129.664C180.57 129.344 181.093 128.917 181.519 128.384C181.946 127.829 182.266 127.221 182.479 126.56C182.714 125.899 182.831 125.205 182.831 124.48V124.384H178.799C177.754 124.384 176.911 124.512 176.271 124.768C175.631 125.003 175.173 125.344 174.895 125.792C174.618 126.219 174.479 126.709 174.479 127.264C174.479 127.84 174.607 128.341 174.863 128.768C175.141 129.195 175.535 129.525 176.047 129.76C176.581 129.995 177.21 130.112 177.935 130.112ZM189.678 132V115.872H192.11L192.238 118.688C192.75 117.685 193.475 116.907 194.414 116.352C195.374 115.776 196.462 115.488 197.678 115.488C198.936 115.488 200.024 115.744 200.942 116.256C201.859 116.747 202.574 117.504 203.086 118.528C203.598 119.531 203.854 120.811 203.854 122.368V132H201.166V122.656C201.166 121.035 200.803 119.819 200.078 119.008C199.374 118.197 198.371 117.792 197.07 117.792C196.174 117.792 195.374 118.016 194.67 118.464C193.966 118.891 193.4 119.52 192.974 120.352C192.568 121.163 192.366 122.176 192.366 123.392V132H189.678ZM213.301 132.384C211.999 132.384 210.911 132.16 210.036 131.712C209.162 131.243 208.511 130.635 208.085 129.888C207.658 129.12 207.445 128.288 207.445 127.392C207.445 126.304 207.722 125.387 208.277 124.64C208.853 123.872 209.653 123.296 210.677 122.912C211.722 122.507 212.949 122.304 214.357 122.304H218.613C218.613 121.301 218.453 120.469 218.133 119.808C217.834 119.125 217.386 118.613 216.789 118.272C216.213 117.931 215.487 117.76 214.613 117.76C213.589 117.76 212.703 118.016 211.957 118.528C211.21 119.04 210.751 119.797 210.581 120.8H207.829C207.957 119.648 208.341 118.688 208.981 117.92C209.642 117.131 210.474 116.533 211.477 116.128C212.479 115.701 213.525 115.488 214.613 115.488C216.106 115.488 217.343 115.765 218.325 116.32C219.327 116.853 220.074 117.611 220.565 118.592C221.055 119.552 221.301 120.693 221.301 122.016V132H218.901L218.741 129.152C218.527 129.6 218.25 130.027 217.909 130.432C217.589 130.816 217.205 131.157 216.757 131.456C216.309 131.733 215.797 131.957 215.22 132.128C214.666 132.299 214.026 132.384 213.301 132.384ZM213.717 130.112C214.463 130.112 215.135 129.963 215.733 129.664C216.351 129.344 216.874 128.917 217.301 128.384C217.727 127.829 218.047 127.221 218.261 126.56C218.495 125.899 218.613 125.205 218.613 124.48V124.384H214.581C213.535 124.384 212.693 124.512 212.053 124.768C211.413 125.003 210.954 125.344 210.677 125.792C210.399 126.219 210.261 126.709 210.261 127.264C210.261 127.84 210.389 128.341 210.645 128.768C210.922 129.195 211.317 129.525 211.829 129.76C212.362 129.995 212.991 130.112 213.717 130.112ZM229.011 109.6L226.099 116.96H224.179L226.003 109.6H229.011ZM234.003 109.6L231.123 116.96H229.203L230.995 109.6H234.003Z" fill="white"/>
<path d="M57 157.5L64.5 165L57 172.5" stroke="white" stroke-linecap="round" stroke-linejoin="round"/>
<path d="M73 157.5L80.5 165L73 172.5" stroke="white" stroke-linecap="round" stroke-linejoin="round"/>
<path d="M89 157.5L96.5 165L89 172.5" stroke="white" stroke-linecap="round" stroke-linejoin="round"/>
<path d="M105 157.5L112.5 165L105 172.5" stroke="white" stroke-linecap="round" stroke-linejoin="round"/>
<path d="M121 157.5L128.5 165L121 172.5" stroke="white" stroke-linecap="round" stroke-linejoin="round"/>
<path d="M137 157.5L144.5 165L137 172.5" stroke="white" stroke-linecap="round" stroke-linejoin="round"/>
<path d="M153 157.5L160.5 165L153 172.5" stroke="white" stroke-linecap="round" stroke-linejoin="round"/>
<path d="M169 157.5L176.5 165L169 172.5" stroke="white" stroke-linecap="round" stroke-linejoin="round"/>
<path d="M185 157.5L192.5 165L185 172.5" stroke="white" stroke-linecap="round" stroke-linejoin="round"/>
<path d="M201 157.5L208.5 165L201 172.5" stroke="white" stroke-linecap="round" stroke-linejoin="round"/>
<path d="M217 157.5L224.5 165L217 172.5" stroke="white" stroke-linecap="round" stroke-linejoin="round"/>
<path d="M53.952 204.96L56.864 197.6H58.784L56.96 204.96H53.952ZM48.96 204.96L51.84 197.6H53.76L51.968 204.96H48.96ZM76.454 220V197.6H79.142V220H76.454ZM62.15 220V197.6H64.838V220H62.15ZM64.326 209.696V207.488H77.126V209.696H64.326ZM90.8433 220.384C89.3286 220.384 87.9846 220.032 86.8113 219.328C85.6593 218.624 84.7526 217.643 84.0913 216.384C83.4299 215.104 83.0993 213.621 83.0993 211.936C83.0993 210.229 83.4193 208.747 84.0593 207.488C84.7206 206.229 85.6379 205.248 86.8113 204.544C88.0059 203.84 89.3713 203.488 90.9073 203.488C92.4859 203.488 93.8193 203.84 94.9073 204.544C96.0166 205.248 96.8593 206.176 97.4353 207.328C98.0326 208.459 98.3313 209.707 98.3313 211.072C98.3313 211.285 98.3313 211.509 98.3313 211.744C98.3313 211.979 98.3206 212.245 98.2993 212.544H85.1153V210.464H95.7073C95.6433 208.992 95.1526 207.84 94.2353 207.008C93.3393 206.176 92.2086 205.76 90.8433 205.76C89.9259 205.76 89.0726 205.973 88.2833 206.4C87.5153 206.805 86.8966 207.413 86.4273 208.224C85.9579 209.013 85.7233 210.005 85.7233 211.2V212.096C85.7233 213.419 85.9579 214.528 86.4273 215.424C86.9179 216.32 87.5473 216.992 88.3153 217.44C89.1046 217.888 89.9473 218.112 90.8433 218.112C91.9739 218.112 92.9019 217.867 93.6273 217.376C94.3739 216.864 94.9073 216.181 95.2273 215.328H97.8833C97.6273 216.288 97.1793 217.152 96.5393 217.92C95.8993 218.688 95.0993 219.296 94.1393 219.744C93.2006 220.171 92.1019 220.384 90.8433 220.384ZM103.094 227.04L107.03 218.208H106.102L99.7658 203.872H102.678L107.926 216.192L113.43 203.872H116.214L105.91 227.04H103.094ZM134.911 220.384C133.268 220.384 131.839 220.085 130.623 219.488C129.407 218.891 128.468 218.059 127.807 216.992C127.146 215.925 126.815 214.688 126.815 213.28H129.631C129.631 214.155 129.834 214.965 130.239 215.712C130.644 216.437 131.231 217.024 131.999 217.472C132.788 217.899 133.759 218.112 134.911 218.112C135.914 218.112 136.767 217.952 137.471 217.632C138.196 217.291 138.74 216.832 139.103 216.256C139.487 215.68 139.679 215.029 139.679 214.304C139.679 213.429 139.487 212.725 139.103 212.192C138.74 211.637 138.239 211.189 137.599 210.848C136.959 210.507 136.212 210.208 135.359 209.952C134.527 209.675 133.652 209.387 132.735 209.088C130.964 208.491 129.663 207.744 128.831 206.848C127.999 205.952 127.583 204.789 127.583 203.36C127.583 202.144 127.86 201.077 128.415 200.16C128.991 199.243 129.802 198.528 130.847 198.016C131.914 197.483 133.172 197.216 134.623 197.216C136.052 197.216 137.29 197.483 138.335 198.016C139.402 198.549 140.234 199.285 140.831 200.224C141.428 201.141 141.727 202.208 141.727 203.424H138.911C138.911 202.805 138.751 202.197 138.431 201.6C138.111 201.003 137.62 200.512 136.959 200.128C136.319 199.723 135.508 199.52 134.527 199.52C133.716 199.499 132.991 199.637 132.351 199.936C131.732 200.213 131.242 200.619 130.879 201.152C130.538 201.685 130.367 202.336 130.367 203.104C130.367 203.829 130.516 204.416 130.815 204.864C131.135 205.312 131.583 205.696 132.159 206.016C132.756 206.315 133.45 206.592 134.239 206.848C135.028 207.104 135.903 207.392 136.863 207.712C137.951 208.075 138.911 208.523 139.743 209.056C140.596 209.568 141.258 210.229 141.727 211.04C142.218 211.851 142.463 212.885 142.463 214.144C142.463 215.211 142.175 216.224 141.599 217.184C141.044 218.123 140.212 218.891 139.103 219.488C137.994 220.085 136.596 220.384 134.911 220.384ZM146.434 220V203.872H149.122V220H146.434ZM147.778 200.448C147.244 200.448 146.796 200.277 146.434 199.936C146.092 199.573 145.922 199.125 145.922 198.592C145.922 198.059 146.092 197.632 146.434 197.312C146.796 196.971 147.244 196.8 147.778 196.8C148.29 196.8 148.727 196.971 149.09 197.312C149.452 197.632 149.634 198.059 149.634 198.592C149.634 199.125 149.452 199.573 149.09 199.936C148.727 200.277 148.29 200.448 147.778 200.448ZM153.865 220V203.872H156.297L156.489 206.944C156.852 206.219 157.31 205.6 157.865 205.088C158.441 204.576 159.124 204.181 159.913 203.904C160.724 203.627 161.641 203.488 162.665 203.488V206.304H161.673C160.99 206.304 160.34 206.4 159.721 206.592C159.102 206.763 158.548 207.051 158.057 207.456C157.588 207.861 157.214 208.416 156.937 209.12C156.681 209.803 156.553 210.656 156.553 211.68V220H153.865ZM165.965 220V203.872H168.653V220H165.965ZM167.309 200.448C166.775 200.448 166.327 200.277 165.965 199.936C165.623 199.573 165.453 199.125 165.453 198.592C165.453 198.059 165.623 197.632 165.965 197.312C166.327 196.971 166.775 196.8 167.309 196.8C167.821 196.8 168.258 196.971 168.621 197.312C168.983 197.632 169.165 198.059 169.165 198.592C169.165 199.125 168.983 199.573 168.621 199.936C168.258 200.277 167.821 200.448 167.309 200.448ZM176.948 197.6L174.036 204.96H172.116L173.94 197.6H176.948ZM181.94 197.6L179.06 204.96H177.14L178.932 197.6H181.94Z" fill="white"/>
<g filter="url(#filter1_f_64_7215)">
<circle cx="76" cy="279" r="28" fill="url(#paint2_angular_64_7215)" fill-opacity="0.4"/>
</g>
<g filter="url(#filter2_f_64_7215)">
<circle cx="76" cy="279" r="28" fill="url(#paint3_angular_64_7215)" fill-opacity="0.8"/>
</g>
<g filter="url(#filter3_iii_64_7215)">
<circle cx="76" cy="279" r="28" fill="#2A0931"/>
<circle cx="76" cy="279" r="28" fill="url(#paint4_radial_64_7215)" fill-opacity="0.9"/>
</g>
<mask id="mask0_64_7215" style="mask-type:alpha" maskUnits="userSpaceOnUse" x="48" y="251" width="56" height="56">
<path d="M104 279C104 294.464 91.464 307 76 307C60.536 307 48 294.464 48 279C48 263.536 60.536 251 76 251C91.464 251 104 263.536 104 279Z" fill="white"/>
</mask>
<g mask="url(#mask0_64_7215)">
<g style="mix-blend-mode:plus-lighter">
<path d="M55.7079 273.246C53.1351 282.817 56.8235 294.679 67.4604 299.656C78.0974 304.632 83.3718 301.421 88.1507 297.853C92.9296 294.284 102.762 281.734 93.8986 273.217C85.0354 264.7 77.4872 269.627 67.9212 268.473C64.2249 268.028 58.2806 263.674 55.7079 273.246Z" fill="url(#paint5_linear_64_7215)" fill-opacity="0.8"/>
</g>
<path d="M82.9195 287.684C98.7382 276.825 92.4423 261.872 79.8371 257.188C73.9582 255.004 74.8562 263.15 67.5512 270.36C60.2462 277.571 50.8905 289.053 60.6507 294.04C70.4109 299.027 76.2379 292.271 82.9195 287.684Z" fill="url(#paint6_radial_64_7215)"/>
<path d="M82.9195 287.684C98.7382 276.825 92.4423 261.872 79.8371 257.188C73.9582 255.004 74.8562 263.15 67.5512 270.36C60.2462 277.571 50.8905 289.053 60.6507 294.04C70.4109 299.027 76.2379 292.271 82.9195 287.684Z" fill="url(#paint7_linear_64_7215)"/>
<path d="M82.9195 287.684C98.7382 276.825 92.4423 261.872 79.8371 257.188C73.9582 255.004 74.8562 263.15 67.5512 270.36C60.2462 277.571 50.8905 289.053 60.6507 294.04C70.4109 299.027 76.2379 292.271 82.9195 287.684Z" fill="url(#paint8_radial_64_7215)" fill-opacity="0.2"/>
<path d="M58.9017 277.009C61.4401 268.92 61.5766 257.16 70.8369 257.16C78.1477 257.16 84.1201 260.24 87.8954 266.424C91.6708 272.608 98.9601 273.871 98.9601 278.44C98.9601 286.729 84.3443 291.067 75.4401 290.2C66.5359 289.333 56.3633 285.099 58.9017 277.009Z" fill="url(#paint9_linear_64_7215)" fill-opacity="0.3" style="mix-blend-mode:plus-lighter"/>
<path d="M58.9017 277.009C61.4401 268.92 61.5766 257.16 70.8369 257.16C78.1477 257.16 84.1201 260.24 87.8954 266.424C91.6708 272.608 98.9601 273.871 98.9601 278.44C98.9601 286.729 84.3443 291.067 75.4401 290.2C66.5359 289.333 56.3633 285.099 58.9017 277.009Z" fill="url(#paint10_radial_64_7215)"/>
<path d="M77.2536 294.489C79.2782 303.36 93.5582 300 87.3982 292.16C81.2382 284.32 81.5075 284.846 76.5495 279C76.1759 284.682 75.229 285.619 77.2536 294.489Z" fill="url(#paint11_radial_64_7215)"/>
<path d="M77.2536 294.489C79.2782 303.36 93.5582 300 87.3982 292.16C81.2382 284.32 81.5075 284.846 76.5495 279C76.1759 284.682 75.229 285.619 77.2536 294.489Z" fill="url(#paint12_linear_64_7215)"/>
<path d="M55.8406 274.8C49.183 259.953 78.8006 247.64 73.9739 260.124C69.1472 272.607 81.399 292.872 90.0775 277.479C97.4939 264.324 62.4982 289.647 55.8406 274.8Z" fill="url(#paint13_angular_64_7215)" style="mix-blend-mode:screen"/>
<g style="mix-blend-mode:plus-lighter" filter="url(#filter4_f_64_7215)">
<path d="M86.9182 279.11C92.7337 283.525 78.7082 282.846 76.6556 289.299C74.6031 295.752 58.5249 285.223 66.393 279.11C74.261 272.996 60.5775 276.392 76.6556 268.92C92.7338 261.448 81.1028 274.694 86.9182 279.11Z" fill="url(#paint14_radial_64_7215)" fill-opacity="0.6"/>
</g>
<path d="M75.6026 287.617C68.7202 286.84 66.2002 285.44 67.2026 279.217C68.205 272.994 71.565 274.394 75.6026 270.817C79.6402 267.24 81.9978 270.383 85.5202 277.04C89.0426 283.697 82.485 288.394 75.6026 287.617Z" fill="url(#paint15_radial_64_7215)"/>
</g>
<path fill-rule="evenodd" clip-rule="evenodd" d="M139.794 263.826V294.174C139.794 294.63 140.163 295 140.619 295C141.074 295 141.443 294.63 141.443 294.174V263.826C141.443 263.37 141.074 263 140.619 263C140.163 263 139.794 263.37 139.794 263.826ZM187.299 263.826V294.174C187.299 294.63 187.668 295 188.124 295C188.579 295 188.948 294.63 188.948 294.174V263.826C188.948 263.37 188.579 263 188.124 263C187.668 263 187.299 263.37 187.299 263.826ZM163.546 263.826V294.174C163.546 294.63 163.916 295 164.371 295C164.826 295 165.196 294.63 165.196 294.174V263.826C165.196 263.37 164.826 263 164.371 263C163.916 263 163.546 263.37 163.546 263.826ZM195.216 267.619V290.381C195.216 290.836 195.586 291.206 196.041 291.206C196.496 291.206 196.866 290.836 196.866 290.381V267.619C196.866 267.164 196.496 266.794 196.041 266.794C195.586 266.794 195.216 267.164 195.216 267.619ZM131.876 267.619V290.381C131.876 290.836 132.246 291.206 132.701 291.206C133.156 291.206 133.526 290.836 133.526 290.381V267.619C133.526 267.164 133.156 266.794 132.701 266.794C132.246 266.794 131.876 267.164 131.876 267.619ZM171.464 267.619V290.381C171.464 290.836 171.833 291.206 172.289 291.206C172.744 291.206 173.113 290.836 173.113 290.381V267.619C173.113 267.164 172.744 266.794 172.289 266.794C171.833 266.794 171.464 267.164 171.464 267.619ZM155.629 267.619V290.381C155.629 290.836 155.998 291.206 156.454 291.206C156.909 291.206 157.278 290.836 157.278 290.381V267.619C157.278 267.164 156.909 266.794 156.454 266.794C155.998 266.794 155.629 267.164 155.629 267.619ZM147.711 267.619V290.381C147.711 290.836 148.081 291.206 148.536 291.206C148.991 291.206 149.361 290.836 149.361 290.381V267.619C149.361 267.164 148.991 266.794 148.536 266.794C148.081 266.794 147.711 267.164 147.711 267.619ZM179.381 267.619V290.381C179.381 290.836 179.751 291.206 180.206 291.206C180.661 291.206 181.031 290.836 181.031 290.381V267.619C181.031 267.164 180.661 266.794 180.206 266.794C179.751 266.794 179.381 267.164 179.381 267.619ZM135.835 270.285V287.715C135.835 288.171 136.205 288.541 136.66 288.541C137.115 288.541 137.485 288.171 137.485 287.715V270.285C137.485 269.829 137.115 269.459 136.66 269.459C136.205 269.459 135.835 269.829 135.835 270.285ZM143.753 270.285V287.715C143.753 288.171 144.122 288.541 144.577 288.541C145.033 288.541 145.402 288.171 145.402 287.715V270.285C145.402 269.829 145.033 269.459 144.577 269.459C144.122 269.459 143.753 269.829 143.753 270.285ZM167.505 270.285V287.715C167.505 288.171 167.875 288.541 168.33 288.541C168.785 288.541 169.155 288.171 169.155 287.715V270.285C169.155 269.829 168.785 269.459 168.33 269.459C167.875 269.459 167.505 269.829 167.505 270.285ZM183.34 270.285V287.715C183.34 288.171 183.71 288.541 184.165 288.541C184.62 288.541 184.99 288.171 184.99 287.715V270.285C184.99 269.829 184.62 269.459 184.165 269.459C183.71 269.459 183.34 269.829 183.34 270.285ZM159.588 270.285V287.715C159.588 288.171 159.957 288.541 160.412 288.541C160.868 288.541 161.237 288.171 161.237 287.715V270.285C161.237 269.829 160.868 269.459 160.412 269.459C159.957 269.459 159.588 269.829 159.588 270.285ZM191.258 270.285V287.715C191.258 288.171 191.627 288.541 192.082 288.541C192.538 288.541 192.907 288.171 192.907 287.715V270.285C192.907 269.829 192.538 269.459 192.082 269.459C191.627 269.459 191.258 269.829 191.258 270.285ZM123.959 270.9V287.1C123.959 287.555 124.328 287.925 124.784 287.925C125.239 287.925 125.608 287.555 125.608 287.1V270.9C125.608 270.445 125.239 270.075 124.784 270.075C124.328 270.075 123.959 270.445 123.959 270.9ZM120 275.206V282.794C120 283.249 120.369 283.619 120.825 283.619C121.28 283.619 121.649 283.249 121.649 282.794V275.206C121.649 274.751 121.28 274.381 120.825 274.381C120.369 274.381 120 274.751 120 275.206ZM151.67 275.206V282.794C151.67 283.249 152.04 283.619 152.495 283.619C152.95 283.619 153.32 283.249 153.32 282.794V275.206C153.32 274.751 152.95 274.381 152.495 274.381C152.04 274.381 151.67 274.751 151.67 275.206ZM127.918 275.206V282.794C127.918 283.249 128.287 283.619 128.742 283.619C129.198 283.619 129.567 283.249 129.567 282.794V275.206C129.567 274.751 129.198 274.381 128.742 274.381C128.287 274.381 127.918 274.751 127.918 275.206ZM199.175 275.206V282.794C199.175 283.249 199.545 283.619 200 283.619C200.455 283.619 200.825 283.249 200.825 282.794V275.206C200.825 274.751 200.455 274.381 200 274.381C199.545 274.381 199.175 274.751 199.175 275.206ZM175.423 275.206V282.794C175.423 283.249 175.792 283.619 176.247 283.619C176.703 283.619 177.072 283.249 177.072 282.794V275.206C177.072 274.751 176.703 274.381 176.247 274.381C175.792 274.381 175.423 274.751 175.423 275.206Z" fill="url(#paint16_linear_64_7215)"/>
</g>
<defs>
<filter id="filter0_bd_64_7215" x="-6" y="-15" width="327" height="376" filterUnits="userSpaceOnUse" color-interpolation-filters="sRGB">
<feFlood flood-opacity="0" result="BackgroundImageFix"/>
<feGaussianBlur in="BackgroundImageFix" stdDeviation="15"/>
<feComposite in2="SourceAlpha" operator="in" result="effect1_backgroundBlur_64_7215"/>
<feColorMatrix in="SourceAlpha" type="matrix" values="0 0 0 0 0 0 0 0 0 0 0 0 0 0 0 0 0 0 127 0" result="hardAlpha"/>
<feOffset dx="-4" dy="5.33333"/>
<feGaussianBlur stdDeviation="10"/>
<feComposite in2="hardAlpha" operator="out"/>
<feColorMatrix type="matrix" values="0 0 0 0 0 0 0 0 0 0 0 0 0 0 0 0 0 0 0.25 0"/>
<feBlend mode="normal" in2="effect1_backgroundBlur_64_7215" result="effect2_dropShadow_64_7215"/>
<feBlend mode="normal" in="SourceGraphic" in2="effect2_dropShadow_64_7215" result="shape"/>
</filter>
<filter id="filter1_f_64_7215" x="40" y="243" width="72" height="72" filterUnits="userSpaceOnUse" color-interpolation-filters="sRGB">
<feFlood flood-opacity="0" result="BackgroundImageFix"/>
<feBlend mode="normal" in="SourceGraphic" in2="BackgroundImageFix" result="shape"/>
<feGaussianBlur stdDeviation="4" result="effect1_foregroundBlur_64_7215"/>
</filter>
<filter id="filter2_f_64_7215" x="46" y="249" width="60" height="60" filterUnits="userSpaceOnUse" color-interpolation-filters="sRGB">
<feFlood flood-opacity="0" result="BackgroundImageFix"/>
<feBlend mode="normal" in="SourceGraphic" in2="BackgroundImageFix" result="shape"/>
<feGaussianBlur stdDeviation="1" result="effect1_foregroundBlur_64_7215"/>
</filter>
<filter id="filter3_iii_64_7215" x="48" y="251" width="56" height="56" filterUnits="userSpaceOnUse" color-interpolation-filters="sRGB">
<feFlood flood-opacity="0" result="BackgroundImageFix"/>
<feBlend mode="normal" in="SourceGraphic" in2="BackgroundImageFix" result="shape"/>
<feColorMatrix in="SourceAlpha" type="matrix" values="0 0 0 0 0 0 0 0 0 0 0 0 0 0 0 0 0 0 127 0" result="hardAlpha"/>
<feOffset/>
<feGaussianBlur stdDeviation="8"/>
<feComposite in2="hardAlpha" operator="arithmetic" k2="-1" k3="1"/>
<feColorMatrix type="matrix" values="0 0 0 0 0.8625 0 0 0 0 0.251563 0 0 0 0 0.618125 0 0 0 0.6 0"/>
<feBlend mode="normal" in2="shape" result="effect1_innerShadow_64_7215"/>
<feColorMatrix in="SourceAlpha" type="matrix" values="0 0 0 0 0 0 0 0 0 0 0 0 0 0 0 0 0 0 127 0" result="hardAlpha"/>
<feOffset/>
<feGaussianBlur stdDeviation="6"/>
<feComposite in2="hardAlpha" operator="arithmetic" k2="-1" k3="1"/>
<feColorMatrix type="matrix" values="0 0 0 0 0.945833 0 0 0 0 0.185226 0 0 0 0 0.230862 0 0 0 0.5 0"/>
<feBlend mode="normal" in2="effect1_innerShadow_64_7215" result="effect2_innerShadow_64_7215"/>
<feColorMatrix in="SourceAlpha" type="matrix" values="0 0 0 0 0 0 0 0 0 0 0 0 0 0 0 0 0 0 127 0" result="hardAlpha"/>
<feOffset/>
<feGaussianBlur stdDeviation="2.4"/>
<feComposite in2="hardAlpha" operator="arithmetic" k2="-1" k3="1"/>
<feColorMatrix type="matrix" values="0 0 0 0 1 0 0 0 0 0.7375 0 0 0 0 0.94225 0 0 0 0.6 0"/>
<feBlend mode="normal" in2="effect2_innerShadow_64_7215" result="effect3_innerShadow_64_7215"/>
</filter>
<filter id="filter4_f_64_7215" x="62.6402" y="265.08" width="27.2801" height="27.84" filterUnits="userSpaceOnUse" color-interpolation-filters="sRGB">
<feFlood flood-opacity="0" result="BackgroundImageFix"/>
<feBlend mode="normal" in="SourceGraphic" in2="BackgroundImageFix" result="shape"/>
<feGaussianBlur stdDeviation="0.8" result="effect1_foregroundBlur_64_7215"/>
</filter>
<linearGradient id="paint0_linear_64_7215" x1="24" y1="36.877" x2="326.275" y2="79.2269" gradientUnits="userSpaceOnUse">
<stop stop-opacity="0.4"/>
<stop offset="1" stop-color="#999999" stop-opacity="0.2"/>
</linearGradient>
<linearGradient id="paint1_linear_64_7215" x1="99.0937" y1="34.75" x2="179.246" y2="324.995" gradientUnits="userSpaceOnUse">
<stop stop-color="#D426FB"/>
<stop offset="1" stop-color="#12ECAA"/>
</linearGradient>
<radialGradient id="paint2_angular_64_7215" cx="0" cy="0" r="1" gradientUnits="userSpaceOnUse" gradientTransform="translate(76 279) rotate(90) scale(28)">
<stop stop-color="#A829C4"/>
<stop offset="0.313665" stop-color="#3B0D3C"/>
</radialGradient>
<radialGradient id="paint3_angular_64_7215" cx="0" cy="0" r="1" gradientUnits="userSpaceOnUse" gradientTransform="translate(76 279) rotate(90) scale(28)">
<stop stop-color="#34093D"/>
<stop offset="0.313665" stop-color="#421343"/>
</radialGradient>
<radialGradient id="paint4_radial_64_7215" cx="0" cy="0" r="1" gradientUnits="userSpaceOnUse" gradientTransform="translate(64.24 254.64) rotate(63.4457) scale(27.2328 32.3053)">
<stop stop-color="#DA72FF" stop-opacity="0.63"/>
<stop offset="1" stop-color="#344B9D" stop-opacity="0"/>
</radialGradient>
<linearGradient id="paint5_linear_64_7215" x1="59.9539" y1="293.044" x2="71.1203" y2="274.748" gradientUnits="userSpaceOnUse">
<stop stop-color="#9777C0" stop-opacity="0.53"/>
<stop offset="1" stop-color="#E95BEC" stop-opacity="0"/>
</linearGradient>
<radialGradient id="paint6_radial_64_7215" cx="0" cy="0" r="1" gradientUnits="userSpaceOnUse" gradientTransform="translate(59.0037 276.865) rotate(32.5356) scale(23.7541 24.289)">
<stop stop-color="#C1506B"/>
<stop offset="1" stop-color="#F7BADE" stop-opacity="0"/>
</radialGradient>
<linearGradient id="paint7_linear_64_7215" x1="64.2657" y1="264.744" x2="68.95" y2="270.673" gradientUnits="userSpaceOnUse">
<stop stop-color="#C150A2"/>
<stop offset="1" stop-color="#E0ADBC" stop-opacity="0"/>
</linearGradient>
<radialGradient id="paint8_radial_64_7215" cx="0" cy="0" r="1" gradientUnits="userSpaceOnUse" gradientTransform="translate(77.8817 279.298) rotate(109.542) scale(14.1524 12.7672)">
<stop stop-color="#FF2E00"/>
<stop offset="1" stop-color="#FFD6CD" stop-opacity="0"/>
</radialGradient>
<linearGradient id="paint9_linear_64_7215" x1="92.3387" y1="283.431" x2="97.8723" y2="272.846" gradientUnits="userSpaceOnUse">
<stop stop-color="#D426FB" stop-opacity="0"/>
<stop offset="0.665732" stop-color="#D426FB"/>
<stop offset="0.911525" stop-color="#EC95FF"/>
</linearGradient>
<radialGradient id="paint10_radial_64_7215" cx="0" cy="0" r="1" gradientUnits="userSpaceOnUse" gradientTransform="translate(60.3201 278.16) rotate(30.6997) scale(10.4204 12.7166)">
<stop stop-color="#8F4791"/>
<stop offset="1" stop-color="#8F4791" stop-opacity="0"/>
</radialGradient>
<radialGradient id="paint11_radial_64_7215" cx="0" cy="0" r="1" gradientUnits="userSpaceOnUse" gradientTransform="translate(84.12 299.72) rotate(-102.011) scale(13.4546 17.231)">
<stop stop-color="#E375DF" stop-opacity="0"/>
<stop offset="1" stop-color="#FF91B2"/>
</radialGradient>
<linearGradient id="paint12_linear_64_7215" x1="77.2777" y1="281.464" x2="78.1208" y2="287.178" gradientUnits="userSpaceOnUse">
<stop stop-color="white"/>
<stop offset="1" stop-color="white" stop-opacity="0"/>
</linearGradient>
<radialGradient id="paint13_angular_64_7215" cx="0" cy="0" r="1" gradientUnits="userSpaceOnUse" gradientTransform="translate(76.2806 280.96) rotate(-65.0114) scale(31.3345 32.9553)">
<stop offset="0.0076933" stop-color="#FFADAD"/>
<stop offset="0.258126" stop-color="#FF3205" stop-opacity="0"/>
<stop offset="0.570188" stop-color="#FFF1E0" stop-opacity="0"/>
<stop offset="0.762235" stop-color="#7A0E4F" stop-opacity="0"/>
</radialGradient>
<radialGradient id="paint14_radial_64_7215" cx="0" cy="0" r="1" gradientUnits="userSpaceOnUse" gradientTransform="translate(76.6556 279.11) rotate(90) scale(10.1892 10.2626)">
<stop stop-color="white"/>
<stop offset="0.165839" stop-color="white"/>
<stop offset="0.335281" stop-color="#FFD18B"/>
<stop offset="1" stop-color="#FF144D" stop-opacity="0"/>
</radialGradient>
<radialGradient id="paint15_radial_64_7215" cx="0" cy="0" r="1" gradientUnits="userSpaceOnUse" gradientTransform="translate(75.6026 279.217) rotate(-180) scale(8.4 8.4)">
<stop stop-color="white"/>
<stop offset="0.165839" stop-color="white"/>
<stop offset="0.335281" stop-color="#FFD18B"/>
<stop offset="1" stop-color="#FF144D" stop-opacity="0"/>
</radialGradient>
<linearGradient id="paint16_linear_64_7215" x1="142.732" y1="265" x2="145.63" y2="296.366" gradientUnits="userSpaceOnUse">
<stop stop-color="#D426FB"/>
<stop offset="1" stop-color="#12ECAA"/>
</linearGradient>
</defs>
</svg>
