<svg width="123" height="24" viewBox="0 0 123 24" fill="none" xmlns="http://www.w3.org/2000/svg">
<g clip-path="url(#clip0_64_7349)">
<path d="M3.74377 24C7.42151 24 10.1854 20.8015 11.8347 18.274C11.6342 18.8331 11.5227 19.3923 11.5227 19.9292C11.5227 21.4054 12.3697 22.4567 14.0415 22.4567C16.3372 22.4567 18.7891 20.4436 20.0596 18.274C19.9704 18.5871 19.9259 18.8779 19.9259 19.1463C19.9259 20.1752 20.5054 20.8239 21.6866 20.8239C25.409 20.8239 29.1536 14.2256 29.1536 8.4548C29.1536 3.95899 26.8801 0 21.1741 0C11.1438 0 0.333496 12.2573 0.333496 20.1752C0.333496 23.2843 2.00519 24 3.74377 24ZM17.7191 7.96272C17.7191 6.84436 18.3432 6.06151 19.2572 6.06151C20.1487 6.06151 20.7728 6.84436 20.7728 7.96272C20.7728 9.08109 20.1487 9.8863 19.2572 9.8863C18.3432 9.8863 17.7191 9.08109 17.7191 7.96272ZM22.4891 7.96272C22.4891 6.84436 23.1132 6.06151 24.0271 6.06151C24.9186 6.06151 25.5427 6.84436 25.5427 7.96272C25.5427 9.08109 24.9186 9.8863 24.0271 9.8863C23.1132 9.8863 22.4891 9.08109 22.4891 7.96272Z" fill="black"/>
<path d="M33.6108 21.562H36.9542V18.274C36.9542 16.7307 36.8205 16.1491 36.0404 14.5834L36.4638 14.3597C37.6006 17.0215 39.2055 17.9832 40.8549 17.9832C43.5073 17.9832 45.6248 15.657 45.6248 12.0559C45.6248 8.61136 43.6856 6.08386 40.8994 6.08386C39.2501 6.08386 37.6006 7.02329 36.4638 9.70736L36.0404 9.48368C36.5754 8.41005 36.9542 7.40353 36.9542 6.44174H33.6108V21.562ZM36.9542 12.0335C36.9542 10.5573 38.0687 8.9245 39.7181 8.9245C41.0554 8.9245 42.1477 10.0205 42.1477 12.0111C42.1477 13.9795 41.1 15.1426 39.6958 15.1426C38.1356 15.1426 36.9542 13.5545 36.9542 12.0335Z" fill="black"/>
<path d="M46.8452 17.6254H50.1886V13.6887C50.1886 10.9152 51.1694 8.94691 52.997 8.94691C54.1561 8.94691 54.5128 9.72976 54.5128 11.6757V17.6254H57.8562V11.1389C57.8562 7.60488 56.5857 6.0839 54.1561 6.0839C51.6597 6.0839 50.835 7.76145 49.8766 9.79687L49.4531 9.57319C50.0326 8.32063 50.1886 7.56015 50.1886 6.44178V2.57227H46.8452V17.6254Z" fill="black"/>
<path d="M62.742 17.9832C64.9041 17.9832 66.1746 16.5517 67.133 14.7176L67.5342 14.9189C67.1107 15.7912 66.7095 16.7977 66.7095 17.6253H69.9861V11.5414C69.9861 7.91798 68.4703 6.08386 64.9264 6.08386C61.4492 6.08386 59.7329 7.82851 59.3986 9.66262L62.6083 10.2218C62.7197 9.26001 63.4999 8.61136 64.7481 8.61136C65.9963 8.61136 66.7095 9.23764 66.7095 9.99812C66.7095 10.7586 65.974 11.1165 64.0125 11.1389C61.1149 11.1836 58.9751 12.2348 58.9751 14.4716C58.9751 16.3056 60.4239 17.9832 62.742 17.9832ZM62.2962 14.2478C62.2962 12.4808 65.1046 13.7111 66.6427 12.3467V12.7492C66.6427 14.3373 65.2385 15.5005 63.8341 15.5005C63.0986 15.5005 62.2962 15.1873 62.2962 14.2478Z" fill="black"/>
<path d="M71.311 17.6253H74.6544V13.6887C74.6544 10.9152 75.6351 8.94687 77.4629 8.94687C78.6219 8.94687 78.9785 9.72972 78.9785 11.6757V17.6253H82.322V11.1389C82.322 7.60484 81.0515 6.08386 78.6219 6.08386C76.1255 6.08386 75.3008 7.76141 74.3423 9.79682L73.9189 9.57315C74.4984 8.32059 74.6544 7.56011 74.6544 6.44174H71.311V17.6253Z" fill="black"/>
<path d="M91.2269 17.6701V14.8965C90.5137 15.1426 88.5299 15.5676 88.5299 13.9348V9.12585H91.2046V6.44178H88.5299V3.44458L85.1642 4.4511V6.44178H83.1582V9.12585H85.1642L85.1865 14.2032C85.1865 17.9385 88.5076 18.4753 91.2269 17.6701Z" fill="black"/>
<path d="M98.0188 17.9832C101.407 17.9832 103.992 15.3886 103.992 12.0111C103.992 8.65609 101.407 6.08386 98.0188 6.08386C94.6308 6.08386 92.0229 8.65609 92.0229 12.0111C92.0229 15.3886 94.6308 17.9832 98.0188 17.9832ZM95.4778 12.0335C95.4778 10.1771 96.5254 8.87977 98.0188 8.87977C99.5121 8.87977 100.537 10.1771 100.537 12.0335C100.537 13.89 99.5121 15.1873 98.0188 15.1873C96.5254 15.1873 95.4778 13.89 95.4778 12.0335Z" fill="black"/>
<path d="M105.028 17.6253H108.371V13.6887C108.371 10.8033 109.285 8.94687 110.756 8.94687C111.715 8.94687 112.027 9.70736 112.027 11.6757V17.6253H115.371V13.6887C115.371 10.9822 116.351 8.94687 117.756 8.94687C118.691 8.94687 119.025 9.81919 119.025 11.6757V17.6253H122.369V11.1389C122.369 7.58247 121.21 6.08386 118.937 6.08386C116.574 6.08386 115.728 7.76141 114.903 9.81919L114.501 9.61788C115.282 7.26933 113.587 6.08386 111.915 6.08386C109.709 6.08386 108.907 7.76141 108.015 9.79682L107.614 9.57315C108.171 8.32059 108.371 7.56011 108.371 6.44174H105.028V17.6253Z" fill="black"/>
</g>
<defs>
<clipPath id="clip0_64_7349">
<rect width="122.036" height="24" fill="white" transform="translate(0.333496)"/>
</clipPath>
</defs>
</svg>
